<svg width="221" height="39" viewBox="0 0 221 39" fill="none" xmlns="http://www.w3.org/2000/svg">
<g id="Asset 4 1" clip-path="url(#clip0_5820_409)">
<g id="Layer 1">
<path id="Vector" d="M0.277832 18.645L3.27071 16.3622L8.81849 2.53916L6.58876 0.853587V0.634595H11.9507L18.2617 16.3622L21.2545 18.645V18.864H11.8114V18.645L14.8043 16.3622L13.3377 12.7189H5.79907L4.33249 16.3622L7.32537 18.645V18.864H0.277832V18.645ZM12.9262 11.6837L9.58165 3.30231L6.21051 11.6837H12.9329H12.9262ZM24.984 8.93636L22.8074 7.16452V7.0318L28.03 4.98788H28.1694V7.35696C29.0387 5.80412 30.4522 4.98788 32.4165 4.98788C34.6462 4.98788 36.4446 6.0762 37.2343 8.38556C38.024 6.15583 39.6034 4.98788 41.9393 4.98788C45.0118 4.98788 47.215 7.05834 47.215 11.5178V16.6342L49.9358 18.7312V18.8706H41.3088V18.7312L44.0296 16.6342V12.062C44.0296 7.98076 42.9413 5.93684 40.9571 5.93684C39.2716 5.93684 38.0173 7.42996 37.6125 10.1839C37.6656 10.5954 37.6922 11.0533 37.6922 11.5178V16.6342L40.413 18.7312V18.8706H31.786V18.7312L34.5068 16.6342V12.062C34.5068 7.98076 33.4185 5.93684 31.4343 5.93684C29.8284 5.93684 28.6339 7.29724 28.1694 9.7725V16.6276L30.8902 18.7246V18.864H22.2632V18.7246L24.984 16.6276V8.92972V8.93636ZM54.5014 12.7986C55.019 15.5194 56.7842 16.8267 59.4519 16.8267C61.602 16.8267 63.7521 16.0104 64.648 14.3249H64.8139C64.0508 17.5102 61.3034 19.1427 58.0915 19.1427C54.0369 19.1427 51.0705 16.4219 51.0705 12.0155C51.0705 7.60914 53.9573 4.99451 57.8991 4.99451C61.6286 4.99451 64.4556 7.3636 64.4556 11.5244L54.4948 12.8052L54.5014 12.7986ZM61.1972 11.0533C61.0911 7.29724 59.7572 5.93684 57.8261 5.93684C55.7556 5.93684 54.3421 7.59586 54.3421 10.967C54.3421 11.2922 54.3421 11.5908 54.3687 11.8894L61.1972 11.0466V11.0533ZM68.9482 8.93636L66.7716 7.16452V7.0318L71.9942 4.98788H72.1335V8.52492C73.0029 6.26864 74.5026 4.98788 76.4337 4.98788C78.5573 4.98788 80.2694 6.481 80.9264 8.87663L78.6104 12.062H78.471C78.471 8.35901 77.3296 6.02311 75.5312 6.02311C73.7328 6.02311 72.4587 8.44528 72.1335 12.2809V16.6342L74.8543 18.7312V18.8706H66.2274V18.7312L68.9482 16.6342V8.93636ZM84.4568 8.93636L82.2801 7.16452V7.0318L87.5027 4.98788H87.6421V16.6342L90.3629 18.7312V18.8706H81.736V18.7312L84.4568 16.6342V8.93636ZM85.8703 0.362515C87.2307 0.362515 88.1531 1.12567 88.1531 2.26708C88.1531 3.40848 87.2307 4.19818 85.8703 4.19818C84.5099 4.19818 83.5543 3.40848 83.5543 2.26708C83.5543 1.12567 84.4767 0.362515 85.8703 0.362515ZM100.018 17.0988C102.248 17.0988 104.153 16.0635 105.082 14.3249H105.248C104.485 17.3974 102.122 19.1427 98.6647 19.1427C94.3645 19.1427 91.5109 16.3422 91.5109 12.1217C91.5109 7.90112 94.4773 4.99451 98.9965 4.99451C101.147 4.99451 103.297 5.59176 104.305 6.54736V10.6286H104.139L102.971 8.23293C102.235 6.73981 100.928 5.95011 99.1624 5.95011C96.3619 5.95011 94.7825 7.90776 94.7825 11.259C94.7825 15.015 96.6871 17.1054 100.032 17.1054L100.018 17.0988ZM115.527 10.237V9.61324C115.527 7.38351 114.492 5.93684 112.859 5.93684C111.227 5.93684 109.674 7.35033 108.207 10.0711H108.041V6.80617C109.402 5.66476 111.36 4.98124 113.238 4.98124C116.396 4.98124 118.706 6.91235 118.706 9.6066V14.9155L120.882 16.6541V16.82L115.686 18.864H115.52V17.2315C114.213 18.5653 112.853 19.136 111.167 19.136C108.579 19.136 106.92 17.7225 106.92 15.5194C106.92 12.9313 109.203 11.2192 113.589 10.5423L115.52 10.2437L115.527 10.237ZM115.527 11.1395L113.596 11.4382C111.313 11.7899 110.032 13.2034 110.032 15.3004C110.032 16.9859 110.875 17.915 112.375 17.915C113.543 17.915 114.605 17.3708 115.534 16.3091V11.1395H115.527ZM124.453 8.93636L122.276 7.1977V7.0318L127.472 4.98788H127.638V7.41005C128.56 5.83066 130.087 4.98788 132.29 4.98788C135.774 4.98788 137.977 7.05834 137.977 11.5178V16.6342L140.698 18.7312V18.8706H132.071V18.7312L134.792 16.6342V12.062C134.792 7.98076 133.703 5.93684 131.308 5.93684C129.377 5.93684 128.122 7.29724 127.638 9.79905V16.6276L130.359 18.7246V18.864H121.732V18.7246L124.453 16.6276V8.92972V8.93636ZM156.425 0.362515C158.901 0.362515 161.27 0.959764 162.849 2.40643L162.577 7.84803H162.358L161.787 6.16247C160.56 2.54579 158.821 1.39775 156.512 1.39775C154.335 1.39775 153.081 2.35335 153.081 4.22472C153.081 6.20892 154.521 7.38351 157.812 8.08693C162.026 8.98281 164.097 10.8874 164.097 13.8537C164.097 17.1718 161.482 19.1294 157.076 19.1294C154.003 19.1294 150.791 18.1738 149.265 16.8134L149.537 11.3718H149.756L150.791 13.7409C152.099 16.7338 153.977 18.0942 156.857 18.0942C159.524 18.0942 160.938 17.0059 160.938 14.9619C160.938 12.918 159.498 11.6439 156.173 10.9073C152.065 10.0114 149.968 8.04712 149.968 5.16705C149.968 2.09454 152.391 0.349243 156.419 0.349243L156.425 0.362515ZM169.24 12.7986C169.757 15.5194 171.522 16.8267 174.19 16.8267C176.34 16.8267 178.49 16.0104 179.386 14.3249H179.552C178.789 17.5102 176.042 19.1427 172.83 19.1427C168.775 19.1427 165.809 16.4219 165.809 12.0155C165.809 7.60914 168.695 4.99451 172.637 4.99451C176.367 4.99451 179.194 7.3636 179.194 11.5244L169.233 12.8052L169.24 12.7986ZM175.929 11.0533C175.823 7.29724 174.489 5.93684 172.558 5.93684C170.487 5.93684 169.074 7.59586 169.074 10.967C169.074 11.2922 169.074 11.5908 169.1 11.8894L175.929 11.0466V11.0533ZM189.831 10.237V9.61324C189.831 7.38351 188.796 5.93684 187.164 5.93684C185.531 5.93684 183.978 7.35033 182.512 10.0711H182.346V6.80617C183.706 5.66476 185.664 4.98124 187.542 4.98124C190.701 4.98124 193.01 6.91235 193.01 9.6066V14.9155L195.187 16.6541V16.82L189.991 18.864H189.825V17.2315C188.517 18.5653 187.157 19.136 185.472 19.136C182.883 19.136 181.224 17.7225 181.224 15.5194C181.224 12.9313 183.507 11.2192 187.894 10.5423L189.825 10.2437L189.831 10.237ZM189.831 11.1395L187.9 11.4382C185.618 11.7899 184.337 13.2034 184.337 15.3004C184.337 16.9859 185.18 17.915 186.679 17.915C187.847 17.915 188.909 17.3708 189.838 16.3091V11.1395H189.831ZM198.757 8.93636L196.58 7.16452V7.0318L201.803 4.98788H201.942V16.6342L204.663 18.7312V18.8706H196.036V18.7312L198.757 16.6342V8.93636ZM200.17 0.362515C201.531 0.362515 202.453 1.12567 202.453 2.26708C202.453 3.40848 201.531 4.19818 200.17 4.19818C198.81 4.19818 197.854 3.40848 197.854 2.26708C197.854 1.12567 198.777 0.362515 200.17 0.362515ZM208.306 8.93636L206.13 7.16452V7.0318L211.352 4.98788H211.492V8.52492C212.361 6.26864 213.861 4.98788 215.792 4.98788C217.915 4.98788 219.628 6.481 220.284 8.87663L217.968 12.062H217.829C217.829 8.35901 216.688 6.02311 214.889 6.02311C213.091 6.02311 211.817 8.44528 211.492 12.2809V16.6342L214.212 18.7312V18.8706H205.586V18.7312L208.306 16.6342V8.93636ZM58.0915 26.8936V38.7723H56.897V26.8936H58.0915ZM68.7889 38.7723H67.6077V26.8936H68.7889L73.1157 37.3588L77.4424 26.8936H78.6369V38.7723H77.4623V33.1316C77.4623 32.614 77.4623 32.1561 77.469 31.7712C77.469 31.3863 77.4822 31.0478 77.4822 30.7558C77.4822 30.4705 77.4955 30.2117 77.5088 29.9861C77.522 29.7604 77.5353 29.5414 77.5552 29.3291L73.693 38.7723H72.545L68.6761 29.3822C68.7093 29.6012 68.7358 30.0259 68.7491 30.6497C68.7624 31.2735 68.7757 32.0432 68.7757 32.9458V38.7723H68.7889ZM89.3609 26.8936V38.7723H88.1664V26.8936H89.3609ZM92.6988 34.4123H89.1153V33.3373H92.4665C93.3292 33.3373 93.9995 33.0851 94.4706 32.5808C94.9484 32.0764 95.1874 31.4195 95.1874 30.6165C95.1874 29.8135 94.9484 29.1565 94.4706 28.6854C93.9929 28.2142 93.3492 27.982 92.5329 27.982H88.6043V26.9069H92.6988C93.462 26.9069 94.1256 27.0595 94.683 27.3714C95.2404 27.6833 95.6718 28.1147 95.9771 28.6854C96.2823 29.2495 96.4349 29.8998 96.4349 30.643C96.4349 31.3863 96.2823 32.0101 95.9771 32.5808C95.6718 33.1581 95.2404 33.6094 94.683 33.9345C94.1256 34.2597 93.462 34.4256 92.6988 34.4256V34.4123ZM115.573 32.8329C115.573 34.0407 115.335 35.1025 114.85 36.0183C114.366 36.9341 113.702 37.6574 112.853 38.1816C112.003 38.7059 111.021 38.9713 109.919 38.9713C108.818 38.9713 107.829 38.7059 106.973 38.1816C106.117 37.6574 105.447 36.9341 104.976 36.0183C104.498 35.1025 104.266 34.0407 104.266 32.8329C104.266 31.6252 104.504 30.5634 104.989 29.641C105.473 28.7186 106.137 27.9952 106.986 27.471C107.836 26.9467 108.818 26.6813 109.926 26.6813C111.034 26.6813 112.023 26.9467 112.873 27.471C113.715 27.9952 114.379 28.7186 114.863 29.641C115.348 30.5634 115.587 31.6318 115.587 32.8329H115.573ZM114.346 32.8329C114.346 31.8375 114.16 30.9682 113.782 30.2183C113.403 29.4684 112.886 28.8911 112.229 28.4664C111.572 28.0417 110.802 27.836 109.913 27.836C109.024 27.836 108.267 28.0483 107.603 28.4664C106.94 28.8845 106.422 29.4684 106.051 30.2183C105.679 30.9616 105.493 31.8375 105.493 32.8329C105.493 33.8284 105.679 34.6844 106.051 35.4343C106.422 36.1842 106.94 36.7748 107.603 37.1929C108.267 37.6109 109.037 37.8233 109.913 37.8233C110.789 37.8233 111.572 37.6109 112.229 37.1929C112.886 36.7748 113.403 36.1842 113.782 35.4343C114.16 34.6844 114.346 33.8151 114.346 32.8329ZM125.581 38.7723H124.386V26.8936H128.819C130.014 26.8936 130.956 27.1989 131.646 27.8161C132.336 28.4332 132.681 29.2694 132.681 30.3311C132.681 31.1806 132.469 31.8973 132.044 32.4746C131.62 33.0519 131.022 33.4435 130.259 33.6492L132.801 38.7789H131.474L129.051 33.8549H125.581V38.7789V38.7723ZM125.581 27.9753V32.7732H128.846C129.662 32.7732 130.306 32.5542 130.763 32.1229C131.221 31.6915 131.454 31.1076 131.454 30.3643C131.454 29.6211 131.215 28.9973 130.737 28.5858C130.259 28.1744 129.622 27.9753 128.812 27.9753H125.574H125.581ZM140.227 27.9886V26.8936H148.741V27.9886H140.227ZM145.071 27.4245V38.7723H143.876V27.4245H145.071ZM156.306 29.9794C156.306 29.3158 156.472 28.7385 156.804 28.2474C157.135 27.7563 157.6 27.3714 158.197 27.0927C158.794 26.814 159.491 26.6813 160.287 26.6813C161.004 26.6813 161.635 26.8074 162.172 27.0662C162.71 27.3183 163.134 27.6833 163.46 28.1611C163.778 28.6389 163.971 29.2096 164.024 29.8732H162.809C162.743 29.2096 162.491 28.692 162.046 28.3204C161.601 27.9488 161.011 27.763 160.274 27.763C159.445 27.763 158.774 27.962 158.263 28.3602C157.753 28.7584 157.5 29.2959 157.5 29.9728C157.5 30.4904 157.653 30.9218 157.965 31.2602C158.277 31.5986 158.741 31.8442 159.358 31.9968L161.396 32.4945C162.325 32.7135 163.028 33.0918 163.506 33.616C163.984 34.1403 164.216 34.8105 164.216 35.6135C164.216 36.2904 164.05 36.881 163.718 37.3853C163.387 37.8963 162.915 38.2878 162.312 38.5665C161.708 38.8453 160.991 38.978 160.168 38.978C159.405 38.978 158.728 38.8519 158.137 38.5931C157.547 38.3409 157.082 37.9759 156.744 37.4981C156.405 37.0203 156.213 36.4629 156.153 35.8192H157.381C157.414 36.4496 157.686 36.9473 158.197 37.3189C158.708 37.6906 159.365 37.8764 160.168 37.8764C161.044 37.8764 161.734 37.6773 162.252 37.2791C162.763 36.881 163.022 36.3434 163.022 35.6732C163.022 35.129 162.869 34.6911 162.564 34.3526C162.258 34.0142 161.787 33.7686 161.144 33.616L159.139 33.1183C158.21 32.8993 157.507 32.521 157.023 31.9968C156.538 31.4725 156.299 30.8023 156.299 29.9794H156.306Z" fill="#231F20"/>
</g>
</g>
<defs>
<clipPath id="clip0_5820_409">
<rect width="220" height="38.6088" fill="white" transform="translate(0.277832 0.362793)"/>
</clipPath>
</defs>
</svg>
