<svg width="181" height="68" viewBox="0 0 181 68" fill="none" xmlns="http://www.w3.org/2000/svg">
<g id="ENGISHT LOGO 1" clip-path="url(#clip0_5820_375)">
<g id="Layer 1">
<g id="Group">
<path id="Vector" d="M75.8539 54.0898L76.3821 54.618L75.5701 56.3524C74.695 56.8964 73.7647 57.2985 72.7635 57.5744C71.7623 57.8424 70.698 57.9843 69.5706 57.9843C66.9296 57.9843 64.8483 57.2196 63.3267 55.6823C61.8052 54.145 61.0483 51.9928 61.0483 49.2177C61.0483 47.4596 61.2691 46.0012 61.7185 44.8501C62.0811 43.9199 62.6803 43.1394 63.508 42.5245C64.3358 41.9095 65.2976 41.3183 66.3777 40.7585C67.4657 40.1988 68.6561 39.9229 69.949 39.9229C71.9357 39.9229 73.5755 40.4747 74.8763 41.5863C76.1692 42.6979 76.8236 44.4875 76.8236 46.9472C76.8236 47.2547 76.7999 47.7119 76.7526 48.3347L73.7805 48.8787C72.8581 48.9418 71.5336 48.9654 69.7913 48.9654H65.8574C66.0387 51.0546 66.6615 52.6313 67.7337 53.6877C68.798 54.7442 70.154 55.2724 71.8017 55.2724C72.4954 55.2724 73.1734 55.1699 73.8593 54.9728C74.5373 54.7757 75.2074 54.4761 75.8775 54.0898M65.7234 47.0418C66.8113 47.1364 67.9071 47.1837 68.9951 47.1837C69.949 47.1837 70.9581 47.1364 72.0145 47.0418L72.0303 46.1825C72.0303 44.6846 71.7544 43.5966 71.2104 42.9108C70.6664 42.2249 69.9254 41.878 68.9951 41.878C68.3407 41.878 67.781 42.0357 67.308 42.3589C66.835 42.6821 66.4802 43.1315 66.2516 43.7149C66.0229 44.2983 65.8416 45.402 65.7234 47.0339" fill="#231F20"/>
<path id="Vector_2" d="M77.4781 57.5981V56.1081C78.7947 56.0371 79.5436 55.9268 79.7171 55.7928C79.8905 55.6508 79.993 55.3434 80.0245 54.8546C80.0955 53.6326 80.1349 51.4725 80.1349 48.3742C80.1349 46.8448 80.1112 45.5282 80.0639 44.4245C80.0403 43.7465 79.993 43.3444 79.922 43.2262C79.859 43.1316 79.7644 43.0527 79.6303 43.0054C79.4963 42.9581 78.7789 42.9108 77.486 42.8793V41.4839C78.1403 41.4839 79.1652 41.342 80.5527 41.0582C81.9403 40.7744 83.1149 40.4511 84.061 40.0806L84.5498 39.915C84.7153 39.915 84.802 40.0569 84.802 40.3329L84.7863 40.4984C84.7547 40.8374 84.7311 41.7125 84.7311 43.1158L87.5455 40.7507C87.8924 40.4511 88.2551 40.2383 88.6335 40.1358C89.1696 39.9939 89.816 39.915 90.5729 39.915C91.8579 39.915 92.9064 40.1358 93.7185 40.5773C94.5384 41.0188 95.1296 41.6337 95.5159 42.4142C95.8944 43.1946 96.0836 44.4166 96.0836 46.0643C96.0836 46.7975 96.0678 47.641 96.0284 48.595C95.9653 50.5659 95.9338 52.2609 95.9338 53.6957C95.9338 54.5077 96.0047 55.0753 96.1309 55.3907C96.2255 55.6114 96.3674 55.7533 96.5408 55.8322C96.7143 55.9031 97.3765 55.9977 98.5354 56.1081V57.5981L96.2964 57.5272L94.8616 57.4956L91.1168 57.606L90.9198 57.3695C91.2351 55.0675 91.3928 52.6945 91.3928 50.2742C91.3928 47.1917 91.2036 45.2917 90.833 44.5822C90.3443 43.6598 89.4613 43.2025 88.1762 43.2025C87.3563 43.2025 86.6389 43.4154 86.0319 43.8332C85.4248 44.2511 85.0307 44.7004 84.8493 45.1734C84.7626 45.3705 84.7232 45.9776 84.7232 47.0182C84.7232 51.4173 84.739 53.9322 84.7784 54.5708C84.8178 55.2094 84.9203 55.6035 85.0858 55.7455C85.3066 55.9268 86.1186 56.0529 87.5219 56.1317V57.6218C85.417 57.5508 83.6352 57.5114 82.1768 57.5114C81.3174 57.5114 79.7486 57.5429 77.4702 57.6218" fill="#231F20"/>
<path id="Vector_3" d="M100.68 51.7089C100.743 53.2699 100.822 54.145 100.916 54.3263C101.184 54.823 101.681 55.2566 102.414 55.635C103.148 56.0134 103.999 56.2026 104.961 56.2026C106.143 56.2026 107.034 55.9582 107.618 55.4695C108.201 54.9807 108.493 54.3342 108.493 53.5301C108.493 52.8363 108.28 52.2844 107.854 51.8824C107.428 51.4803 106.522 51.1334 105.126 50.826C103.014 50.3687 101.65 49.9666 101.011 49.6198C100.372 49.2729 99.8679 48.7604 99.4974 48.0825C99.119 47.4045 98.9298 46.5924 98.9298 45.6464C98.9298 44.5348 99.2057 43.5415 99.7654 42.6821C100.325 41.8228 101.121 41.1448 102.17 40.656C103.218 40.1672 104.598 39.9229 106.317 39.9229C108.035 39.9229 109.77 40.2145 111.307 40.7979C111.149 41.7834 111.039 43.3128 110.984 45.3941H109.549C109.478 44.0854 109.376 43.3128 109.242 43.0842C109.06 42.7373 108.713 42.4377 108.209 42.1933C107.507 41.8701 106.758 41.7046 105.954 41.7046C104.937 41.7046 104.149 41.9332 103.581 42.3826C103.021 42.8319 102.738 43.4074 102.738 44.0933C102.738 44.7319 102.99 45.2364 103.502 45.6149C104.015 46.0012 105.221 46.3717 107.137 46.7186C108.453 46.963 109.376 47.1837 109.88 47.3887C110.732 47.7513 111.37 48.2874 111.812 48.9812C112.253 49.675 112.474 50.5658 112.474 51.6301C112.474 53.6799 111.686 55.2566 110.093 56.3445C108.508 57.4404 106.624 57.9843 104.433 57.9843C103.707 57.9843 102.903 57.8976 102.02 57.7321C101.137 57.5665 100.175 57.3142 99.1347 56.991L98.8667 56.6835C99.0086 55.635 99.1032 53.9716 99.1426 51.7089H100.688H100.68Z" fill="#231F20"/>
<path id="Vector_4" d="M113.27 57.5981V56.108C114.642 56.0607 115.43 55.974 115.643 55.8558C115.856 55.7375 115.99 55.3985 116.053 54.8388C116.148 54.0741 116.195 52.3869 116.195 49.7775C116.195 48.6501 116.179 47.6094 116.14 46.6476L116.085 44.519C116.085 43.8174 116.006 43.3838 115.856 43.2182C115.706 43.0527 115.296 42.9581 114.634 42.9344L113.27 42.8792V41.4838C116.187 41.2631 118.592 40.7428 120.484 39.9229L120.941 40.2855C120.76 42.6033 120.665 45.9775 120.665 50.4081C120.665 52.9703 120.704 54.5155 120.791 55.0516C120.846 55.43 120.965 55.6744 121.122 55.7769C121.288 55.8873 122.076 55.9977 123.495 56.108V57.5981C121.311 57.5271 119.616 57.4877 118.426 57.4877C117.787 57.4877 116.069 57.5271 113.262 57.5981M118.324 31.2272C119.096 31.2272 119.758 31.5031 120.318 32.055C120.87 32.6068 121.146 33.2769 121.146 34.0653C121.146 34.8537 120.87 35.508 120.318 36.052C119.766 36.6038 119.096 36.8798 118.308 36.8798C117.519 36.8798 116.865 36.6038 116.313 36.052C115.761 35.5001 115.485 34.8379 115.485 34.0653C115.485 33.2927 115.761 32.6068 116.313 32.055C116.865 31.5031 117.535 31.2272 118.324 31.2272Z" fill="#231F20"/>
<path id="Vector_5" d="M142.558 43.5651H139.538C139.704 44.1564 139.79 44.7082 139.79 45.2207C139.79 47.4596 138.994 49.1231 137.402 50.211C135.809 51.3069 133.949 51.8508 131.82 51.8508C131.481 51.8508 130.984 51.8272 130.33 51.7799C129.77 52.1031 129.423 52.3712 129.266 52.5604C129.116 52.7575 129.037 52.9703 129.037 53.2147C129.037 53.7981 129.439 54.145 130.251 54.2711C130.701 54.3421 133.16 54.3815 137.63 54.3815C139.136 54.3815 140.169 54.5155 140.744 54.7757C141.32 55.0359 141.793 55.501 142.171 56.1632C142.55 56.8254 142.731 57.6926 142.731 58.7412C142.731 61.1772 141.769 63.2191 139.838 64.8668C137.914 66.5145 135.305 67.3344 132.025 67.3344C129.242 67.3344 127.161 66.8456 125.789 65.8759C124.417 64.8983 123.739 63.6527 123.739 62.139C123.739 61.264 123.952 60.5387 124.378 59.9631C124.575 59.6951 125.237 59.2378 126.38 58.5835L127.689 57.8424C126.711 57.6453 126.057 57.3931 125.726 57.0698C125.403 56.7466 125.237 56.2894 125.237 55.6981C125.237 55.0595 125.474 54.2711 125.947 53.333L126.546 52.9546C127.24 52.5052 127.894 52.0243 128.509 51.504C127.121 51.0073 126.12 50.3372 125.505 49.4857C124.89 48.6343 124.583 47.57 124.583 46.285C124.583 44.4323 125.292 42.9108 126.719 41.7124C128.146 40.522 130.149 39.9229 132.719 39.9229C133.988 39.9229 135.108 40.049 136.069 40.3013C136.779 40.4984 137.496 40.8374 138.206 41.334C140.87 41.3498 142.613 41.3104 143.425 41.2237L143.732 41.6021C143.409 42.0593 143.007 42.7137 142.534 43.573M129.715 58.0474C128.698 58.8042 128.036 59.4271 127.728 59.9237C127.421 60.4204 127.263 60.988 127.263 61.6345C127.263 62.8013 127.721 63.7473 128.627 64.4647C129.534 65.19 130.874 65.5448 132.64 65.5448C133.909 65.5448 134.997 65.3477 135.896 64.9456C136.795 64.5436 137.465 63.9917 137.914 63.2901C138.363 62.5884 138.584 61.8 138.584 60.9407C138.584 60.1524 138.403 59.4822 138.04 58.9383C137.772 58.5599 137.41 58.3155 136.944 58.213C136.479 58.1026 135.131 58.0474 132.9 58.0474H129.723H129.715ZM129.297 45.1182C129.297 46.9393 129.565 48.2244 130.101 48.9654C130.637 49.7065 131.402 50.077 132.403 50.077C133.318 50.077 134.027 49.7538 134.532 49.0994C135.037 48.4451 135.289 47.436 135.289 46.0485C135.289 44.5348 135.029 43.4232 134.5 42.7294C133.972 42.0357 133.239 41.6888 132.285 41.6888C131.331 41.6888 130.637 41.9884 130.101 42.5875C129.557 43.1867 129.289 44.0302 129.289 45.1103" fill="#231F20"/>
<path id="Vector_6" d="M142.503 57.5981V56.1081C143.811 56.0372 144.56 55.9426 144.757 55.8322C144.876 55.7612 144.97 55.6509 145.025 55.5011C145.144 55.2015 145.215 54.0899 145.222 52.1663L145.254 45.4652C145.254 41.9096 145.222 38.6694 145.144 35.7446C145.12 34.6409 145.01 33.9944 144.82 33.8052C144.623 33.616 143.851 33.5056 142.495 33.4662V32.1575C143.236 32.1575 144.3 32.0156 145.703 31.7397C147.099 31.4638 148.242 31.1405 149.125 30.7779C149.487 30.6202 149.7 30.5414 149.763 30.5414C149.945 30.5414 150.039 30.6596 150.039 30.8883V31.0144C150.008 31.3061 149.984 31.7555 149.984 32.3625L149.858 38.1964C149.834 39.6155 149.826 41.2474 149.842 43.1001L152.239 41.0661C152.751 40.6404 153.13 40.3802 153.382 40.2856C154.021 40.0333 154.777 39.8993 155.629 39.8993C157.529 39.8993 158.932 40.3723 159.839 41.3184C160.737 42.2644 161.179 43.7623 161.179 45.8199L161.108 53.0335C161.108 54.3185 161.155 55.1148 161.25 55.4223C161.313 55.6036 161.447 55.7534 161.676 55.8637C161.896 55.9741 162.574 56.0529 163.71 56.1002V57.5903C162.22 57.5193 160.895 57.4799 159.728 57.4799C158.64 57.4799 157.513 57.5114 156.37 57.5903L156.133 57.2828C156.378 54.9335 156.496 52.6157 156.496 50.353C156.496 47.2469 156.315 45.3233 155.952 44.5822C155.463 43.6519 154.596 43.1789 153.335 43.1789C152.586 43.1789 151.916 43.3523 151.332 43.7071C150.749 44.0619 150.347 44.4797 150.126 44.9527C149.905 45.4336 149.787 46.3324 149.787 47.6568L149.858 53.2542C149.874 54.5156 149.929 55.2725 150.039 55.5168C150.102 55.6351 150.197 55.7297 150.331 55.7928C150.599 55.9268 151.387 56.0293 152.696 56.1002V57.5903C151.301 57.5193 149.842 57.4799 148.313 57.4799C146.105 57.4799 144.166 57.5114 142.495 57.5903" fill="#231F20"/>
<path id="Vector_7" d="M163.016 42.9818L165.436 41.3972C165.413 39.2528 165.35 37.3765 165.255 35.7604C166.911 35.2479 168.472 34.633 169.946 33.9077L170.49 34.3256C170.222 36.0836 170.04 38.4408 169.946 41.3972C170.506 41.4918 171.057 41.5391 171.601 41.5391C172.839 41.5391 173.943 41.4524 174.928 41.2868L175.094 41.3972L174.928 42.0515C174.747 42.7295 174.613 43.3524 174.526 43.92C173.107 43.8254 172.067 43.7781 171.396 43.7781C170.9 43.7781 170.419 43.8017 169.946 43.849C169.922 45.071 169.906 46.1589 169.906 47.0892C169.906 51.1651 170.025 53.4829 170.269 54.0426C170.513 54.6024 171.089 54.8783 171.996 54.8783C172.264 54.8783 172.547 54.8467 172.863 54.7837C173.17 54.7206 173.501 54.6418 173.856 54.5314L174.164 55.2252C173.438 56.0372 172.729 56.8807 172.035 57.7479C171.586 57.8189 171.176 57.8741 170.797 57.9135C170.419 57.945 170.08 57.9687 169.765 57.9687C168.748 57.9687 167.896 57.7952 167.21 57.4405C166.524 57.0857 166.028 56.6363 165.72 56.0766C165.413 55.5169 165.255 54.6891 165.255 53.5854C165.255 53.002 165.287 51.4725 165.35 48.9971C165.413 46.8291 165.444 45.1104 165.444 43.849L164.514 43.8096C164.128 43.8096 163.631 43.849 163.024 43.92V42.9739L163.016 42.9818Z" fill="#231F20"/>
<path id="Vector_8" d="M175.401 35.3425H174.4V34.7592H177.096V35.3425H176.103V38.0388H175.401V35.3425Z" fill="#231F20"/>
<path id="Vector_9" d="M180.092 36.8088C180.092 36.2491 180.1 35.6263 180.115 35.2558H180.092C179.934 35.9259 179.611 37.0138 179.295 38.0387H178.696C178.46 37.14 178.121 35.9022 177.971 35.2479H177.947C177.979 35.6342 177.987 36.3043 177.987 36.864V38.0387H177.34V34.767H178.397C178.649 35.6263 178.941 36.6985 179.035 37.1873C179.114 36.7537 179.477 35.6105 179.745 34.767H180.762V38.0387H180.076V36.8088H180.092Z" fill="#231F20"/>
<path id="Vector_10" d="M0.777832 24.3763L17.8854 56.6599L32.8486 54.4525L23.8691 54.8072L7.76277 24.0215L0.777832 24.3763Z" fill="#6D6D6D"/>
<path id="Vector_11" d="M14.5348 21.9245L14.0381 20.9548L7.7627 20.3872L8.73239 22.232L14.5348 21.9245Z" fill="#6D6D6D"/>
<path id="Vector_12" d="M29.9317 51.7406L15.3863 23.5801L9.64697 23.9664L24.9413 53.0965L38.3357 52.8127L29.9317 51.7406Z" fill="#6D6D6D"/>
<path id="Vector_13" d="M14.5347 18.1719L31.0667 50.1717L43.8935 52.0244L28.5045 22.5237L14.5347 18.1719Z" fill="#6D6D6D"/>
<path id="Vector_14" d="M30.0024 21.6644L45.5333 51.2439L51.2411 39.4815L34.6302 7.55261L30.0024 21.6644Z" fill="#6D6D6D"/>
<path id="Vector_15" d="M41.2841 5.27417L40.6219 3.98914L37.3423 9.19236L37.6655 9.80729L41.2841 5.27417Z" fill="#6D6D6D"/>
<path id="Vector_16" d="M57.2957 36.1309L42.1275 6.90613L38.438 11.2816L53.3066 39.5524L49.3884 46.6083L57.2957 36.1309Z" fill="#6D6D6D"/>
<path id="Vector_17" d="M43.042 5.41608L59.2902 36.2097L53.5903 43.6913L64.2806 32.4965L47.5357 0L43.042 5.41608Z" fill="#6D6D6D"/>
</g>
</g>
</g>
<defs>
<clipPath id="clip0_5820_375">
<rect width="180" height="67.3344" fill="white" transform="translate(0.777832)"/>
</clipPath>
</defs>
</svg>
