<svg width="231" height="23" viewBox="0 0 231 23" fill="none" xmlns="http://www.w3.org/2000/svg">
<g id="Group">
<path id="Vector" d="M134.023 1.27014H130.935V22.4773H134.023V1.27014Z" fill="black"/>
<path id="Vector_2" d="M101.617 0.863281H98.5234V19.0012V21.4171V22.4772H119.077V19.0012H101.617V0.863281Z" fill="black"/>
<path id="Vector_3" d="M53.1017 0.863281H32.5479V4.33925H53.1017V0.863281Z" fill="black"/>
<path id="Vector_4" d="M53.1017 9.81213H32.5479V13.2881H53.1017V9.81213Z" fill="black"/>
<path id="Vector_5" d="M53.1017 18.761H32.5479V22.237H53.1017V18.761Z" fill="black"/>
<path id="Vector_6" d="M21.0289 7.07517C21.0289 6.09524 20.8009 5.17078 20.4003 4.34493C19.3895 2.2803 17.2756 0.862793 14.8227 0.862793H0.277832V4.33877H14.8227V4.36342C16.3141 4.36342 17.5283 5.57754 17.5283 7.06901C17.5283 8.56047 16.3141 9.78076 14.8227 9.78076V9.80541H0.277832V13.2814H14.8227V13.3122C16.3141 13.3122 17.5283 14.5263 17.5283 16.0178C17.5283 17.5093 16.3141 18.7234 14.8227 18.7234V18.748H0.277832V22.224H14.8227C17.2756 22.224 19.3895 20.8065 20.4003 18.748C20.807 17.9222 21.0289 16.9977 21.0289 16.0178C21.0289 15.0379 20.8009 14.1072 20.3941 13.2814C20.0736 12.6281 19.6484 12.0426 19.1245 11.5496C19.6484 11.0442 20.0736 10.4587 20.3941 9.80541C20.807 8.97956 21.0289 8.04894 21.0289 7.06901V7.07517Z" fill="black"/>
<path id="Vector_7" d="M86.043 4.33931C85.5377 3.31008 84.7549 2.44109 83.7935 1.82478C82.8321 1.21464 81.6919 0.857178 80.4655 0.857178H69.0145H65.9268V22.2246H69.0145V4.33931H80.4655V4.3578C81.9569 4.3578 83.171 5.57193 83.171 7.06339C83.171 8.55486 81.9569 9.77515 80.4655 9.77515V9.7998H69.0145L72.3425 13.2758L80.9215 22.2307H85.6363L77.0573 13.2758H80.4655C82.1356 13.2758 83.6518 12.6163 84.7673 11.5439C85.2911 11.0386 85.7164 10.4531 86.0369 9.7998C86.4498 8.97395 86.6717 8.04332 86.6717 7.06339C86.6717 6.08346 86.4436 5.159 86.043 4.33315V4.33931Z" fill="black"/>
<path id="Vector_8" d="M162.576 14.7303L145.24 1.27014V22.4773H148.74V8.78293L166.077 22.2369V1.27014H162.576V14.7303Z" fill="black"/>
<path id="Vector_9" d="M177.115 1.33789V4.83852H190.408L176.948 22.1752H197.687V18.6746H184.461L197.915 1.33789H177.115Z" fill="black"/>
<path id="Vector_10" d="M220.004 19.0629C216.571 19.0629 213.687 16.6839 212.904 13.4915H209.73C210.562 18.4158 214.845 22.1691 220.004 22.1691C225.162 22.1691 229.439 18.4096 230.271 13.4915H227.098C226.321 16.6778 223.437 19.0629 220.004 19.0629Z" fill="black"/>
<path id="Vector_11" d="M220.004 4.45018C223.437 4.45018 226.321 6.82913 227.098 10.0216H230.278C229.446 5.09731 225.15 1.34399 220.004 1.34399C214.858 1.34399 210.556 5.10347 209.724 10.0216H212.904C213.681 6.83529 216.577 4.45018 220.004 4.45018Z" fill="black"/>
</g>
</svg>
