<svg width="1638" height="808" viewBox="0 0 1638 808" fill="none" xmlns="http://www.w3.org/2000/svg">
<g opacity="0.51" filter="url(#filter0_f_6149_290)">
<ellipse cx="408.262" cy="218.854" rx="408.262" ry="218.854" transform="matrix(-0.948657 -0.316305 -0.251137 0.967952 497.525 -90.7292)" fill="#6366F1"/>
</g>
<g filter="url(#filter1_f_6149_290)">
<ellipse cx="446.255" cy="266.002" rx="446.255" ry="266.002" transform="matrix(-0.965884 -0.258974 -0.199105 0.979978 647.986 525.667)" fill="white"/>
</g>
<path opacity="0.43" fill-rule="evenodd" clip-rule="evenodd" d="M2007.69 1243.52C2004.38 1243.52 2001.69 1246.21 2001.69 1249.52V1338.05C2001.69 1338.57 2001.26 1339 2000.74 1339C2000.21 1339 1999.79 1338.57 1999.79 1338.05V1249.52C1999.79 1246.21 1997.1 1243.52 1993.79 1243.52H1930.7C1927.39 1243.52 1924.7 1246.21 1924.7 1249.52V1335.69C1924.7 1336.22 1924.27 1336.64 1923.75 1336.64C1923.22 1336.64 1922.8 1336.22 1922.8 1335.69V1249.52C1922.8 1246.21 1920.11 1243.52 1916.8 1243.52H1853.71C1850.4 1243.52 1847.71 1246.21 1847.71 1249.52V1335.69C1847.71 1336.22 1847.29 1336.64 1846.76 1336.64C1846.24 1336.64 1845.81 1336.22 1845.81 1335.69V1249.52C1845.81 1246.21 1843.12 1243.52 1839.81 1243.52H1776.72C1773.41 1243.52 1770.72 1246.21 1770.72 1249.52V1335.69C1770.72 1336.22 1770.3 1336.64 1769.77 1336.64C1769.25 1336.64 1768.82 1336.22 1768.82 1335.69V1249.52C1768.82 1246.21 1766.14 1243.52 1762.82 1243.52H1699.74C1696.42 1243.52 1693.74 1246.21 1693.74 1249.52V1335.69C1693.74 1336.22 1693.31 1336.64 1692.79 1336.64C1692.26 1336.64 1691.83 1336.22 1691.83 1335.69V1249.52C1691.83 1246.21 1689.15 1243.52 1685.83 1243.52H1622.75C1619.43 1243.52 1616.75 1246.21 1616.75 1249.52V1335.69C1616.75 1336.22 1616.32 1336.64 1615.8 1336.64C1615.27 1336.64 1614.85 1336.22 1614.85 1335.69V1249.52C1614.85 1246.21 1612.16 1243.52 1608.85 1243.52H1545.76C1542.45 1243.52 1539.76 1246.21 1539.76 1249.52V1335.69C1539.76 1336.22 1539.33 1336.64 1538.81 1336.64C1538.28 1336.64 1537.86 1336.22 1537.86 1335.69V1249.52C1537.86 1246.21 1535.17 1243.52 1531.86 1243.52H1468.77C1465.46 1243.52 1462.77 1246.21 1462.77 1249.52V1335.69C1462.77 1336.22 1462.35 1336.64 1461.82 1336.64C1461.29 1336.64 1460.87 1336.22 1460.87 1335.69V1249.52C1460.87 1246.21 1458.18 1243.52 1454.87 1243.52H1391.78C1388.47 1243.52 1385.78 1246.21 1385.78 1249.52V1335.69C1385.78 1336.22 1385.36 1336.64 1384.83 1336.64C1384.31 1336.64 1383.88 1336.22 1383.88 1335.69V1249.52C1383.88 1246.21 1381.2 1243.52 1377.88 1243.52H1314.79C1311.48 1243.52 1308.79 1246.21 1308.79 1249.52V1335.69C1308.79 1336.22 1308.37 1336.64 1307.84 1336.64C1307.32 1336.64 1306.89 1336.22 1306.89 1335.69V1249.52C1306.89 1246.21 1304.21 1243.52 1300.89 1243.52H1237.81C1234.49 1243.52 1231.81 1246.21 1231.81 1249.52V1335.69C1231.81 1336.22 1231.38 1336.64 1230.86 1336.64C1230.33 1336.64 1229.91 1336.22 1229.91 1335.69V1249.52C1229.91 1246.21 1227.22 1243.52 1223.91 1243.52H1160.82C1157.5 1243.52 1154.82 1246.21 1154.82 1249.52V1335.69C1154.82 1336.22 1154.39 1336.64 1153.87 1336.64C1153.34 1336.64 1152.92 1336.22 1152.92 1335.69V1249.52C1152.92 1246.21 1150.23 1243.52 1146.92 1243.52H1083.83C1080.52 1243.52 1077.83 1246.21 1077.83 1249.52V1335.69C1077.83 1336.22 1077.41 1336.64 1076.88 1336.64C1076.35 1336.64 1075.93 1336.22 1075.93 1335.69V1249.52C1075.93 1246.21 1073.24 1243.52 1069.93 1243.52H1006.84C1003.53 1243.52 1000.84 1246.21 1000.84 1249.52V1335.69C1000.84 1336.22 1000.42 1336.64 999.891 1336.64C999.365 1336.64 998.94 1336.22 998.94 1335.69V1249.52C998.94 1246.21 996.253 1243.52 992.94 1243.52H929.854C926.541 1243.52 923.854 1246.21 923.854 1249.52V1335.69C923.854 1336.22 923.429 1336.64 922.903 1336.64C922.378 1336.64 921.952 1336.22 921.952 1335.69V1249.52C921.952 1246.21 919.266 1243.52 915.952 1243.52H852.865C849.552 1243.52 846.865 1246.21 846.865 1249.52V1335.69C846.865 1336.22 846.44 1336.64 845.914 1336.64C845.389 1336.64 844.963 1336.22 844.963 1335.69V1249.52C844.963 1246.21 842.277 1243.52 838.963 1243.52H775.878C772.564 1243.52 769.878 1246.21 769.878 1249.52V1335.69C769.878 1336.22 769.452 1336.64 768.927 1336.64C768.402 1336.64 767.976 1336.22 767.976 1335.69V1249.52C767.976 1246.21 765.29 1243.52 761.976 1243.52H698.889C695.575 1243.52 692.889 1246.21 692.889 1249.52V1335.69C692.889 1336.22 692.463 1336.64 691.938 1336.64C691.413 1336.64 690.987 1336.22 690.987 1335.69V1249.52C690.987 1246.21 688.301 1243.52 684.987 1243.52H621.904C618.59 1243.52 615.904 1246.21 615.904 1249.52V1335.69C615.904 1336.22 615.478 1336.64 614.953 1336.64C614.427 1336.64 614.001 1336.22 614.001 1335.69V1249.52C614.001 1246.21 611.315 1243.52 608.001 1243.52H544.915C541.601 1243.52 538.915 1246.21 538.915 1249.52V1335.69C538.915 1336.22 538.489 1336.64 537.963 1336.64C537.438 1336.64 537.012 1336.22 537.012 1335.69V1249.52C537.012 1246.21 534.326 1243.52 531.012 1243.52H467.927C464.614 1243.52 461.927 1246.21 461.927 1249.52V1335.69C461.927 1336.22 461.501 1336.64 460.976 1336.64C460.451 1336.64 460.025 1336.22 460.025 1335.69V1249.52C460.025 1246.21 457.339 1243.52 454.025 1243.52H390.94C387.626 1243.52 384.94 1246.21 384.94 1249.52V1335.69C384.94 1336.22 384.514 1336.64 383.989 1336.64C383.464 1336.64 383.038 1336.22 383.038 1335.69V1249.52C383.038 1246.21 380.351 1243.52 377.038 1243.52H313.951C310.637 1243.52 307.951 1246.21 307.951 1249.52V1335.69C307.951 1336.22 307.525 1336.64 307 1336.64C306.474 1336.64 306.049 1336.22 306.049 1335.69V1249.52C306.049 1246.21 303.362 1243.52 300.049 1243.52H236.964C233.65 1243.52 230.964 1246.21 230.964 1249.52V1335.69C230.964 1336.22 230.538 1336.64 230.013 1336.64C229.487 1336.64 229.061 1336.22 229.061 1335.69V1249.52C229.061 1246.21 226.375 1243.52 223.061 1243.52H159.974C156.661 1243.52 153.974 1246.21 153.974 1249.52V1335.69C153.974 1336.22 153.549 1336.64 153.023 1336.64C152.498 1336.64 152.072 1336.22 152.072 1335.69V1249.52C152.072 1246.21 149.386 1243.52 146.072 1243.52H82.9816C79.6678 1243.52 76.9816 1246.21 76.9816 1249.52V1335.69C76.9816 1336.22 76.5558 1336.64 76.0304 1336.64C75.5051 1336.64 75.0793 1336.22 75.0793 1335.69V1249.52C75.0793 1246.21 72.3931 1243.52 69.0793 1243.52H1.17944C0.528076 1243.52 0 1243 0 1242.34C0 1241.69 0.528076 1241.17 1.17944 1241.17H69.0812C72.3949 1241.17 75.0812 1238.48 75.0812 1235.17V1154.05C75.0812 1150.74 72.3949 1148.05 69.0812 1148.05H1.17944C0.528076 1148.05 0 1147.52 0 1146.87C0 1146.22 0.528076 1145.69 1.17944 1145.69H69.0812C72.3949 1145.69 75.0812 1143.01 75.0812 1139.69V1058.58C75.0812 1055.26 72.3949 1052.58 69.0812 1052.58H1.17944C0.528076 1052.58 0 1052.05 0 1051.4C0 1050.75 0.528076 1050.22 1.17944 1050.22H69.0812C72.3949 1050.22 75.0812 1047.53 75.0812 1044.22V963.102C75.0812 959.788 72.3949 957.102 69.0812 957.102H1.17944C0.528076 957.102 0 956.574 0 955.922C0 955.271 0.528076 954.743 1.17944 954.743H69.0812C72.3949 954.743 75.0812 952.057 75.0812 948.743V867.629C75.0812 864.315 72.3949 861.629 69.0812 861.629H1.17944C0.528076 861.629 0 861.1 0 860.449C0 859.798 0.528076 859.27 1.17944 859.27H69.0812C72.3949 859.27 75.0812 856.583 75.0812 853.27V772.153C75.0812 768.839 72.3949 766.153 69.0812 766.153H1.17944C0.528076 766.153 0 765.625 0 764.973C0 764.322 0.528076 763.794 1.17944 763.794H69.0812C72.3949 763.794 75.0812 761.108 75.0812 757.794V676.68C75.0812 673.366 72.3949 670.68 69.0812 670.68H1.17944C0.528076 670.68 0 670.151 0 669.5C0 668.849 0.528076 668.32 1.17944 668.32H69.0812C72.3949 668.32 75.0812 665.634 75.0812 662.32V581.204C75.0812 577.89 72.3949 575.204 69.0812 575.204H1.17944C0.528076 575.204 0 574.676 0 574.024C0 573.373 0.528076 572.845 1.17944 572.845H69.0812C72.3949 572.845 75.0812 570.159 75.0812 566.845V485.73C75.0812 482.417 72.3949 479.73 69.0812 479.73H1.17944C0.528076 479.73 0 479.202 0 478.551C0 477.9 0.528076 477.372 1.17944 477.372H69.0812C72.3949 477.372 75.0812 474.685 75.0812 471.372V390.255C75.0812 386.941 72.3949 384.255 69.0812 384.255H1.17944C0.528076 384.255 0 383.727 0 383.075C0 382.424 0.528076 381.896 1.17944 381.896H69.0812C72.3949 381.896 75.0812 379.21 75.0812 375.896V294.781C75.0812 291.468 72.3949 288.781 69.0812 288.781H1.17957C0.528076 288.781 0 288.253 0 287.602C0 286.951 0.528076 286.422 1.17957 286.422H69.0812C72.3949 286.422 75.0812 283.736 75.0812 280.422V199.308C75.0812 195.994 72.3949 193.308 69.0812 193.308H1.17957C0.528076 193.308 0 192.78 0 192.129C0 191.477 0.528076 190.949 1.17957 190.949H69.0812C72.3949 190.949 75.0812 188.263 75.0812 184.949V103.832C75.0812 100.519 72.3949 97.8323 69.0812 97.8323H1.17944C0.528076 97.8323 0 97.3042 0 96.6528C0 96.0015 0.528076 95.4734 1.17944 95.4734H69.0812C72.3949 95.4734 75.0812 92.7871 75.0812 89.4734V0.95105C75.0812 0.425781 75.5071 0 76.0323 0C76.5576 0 76.9834 0.425781 76.9834 0.95105V89.4734C76.9834 92.7871 79.6697 95.4734 82.9834 95.4734H146.074C149.388 95.4734 152.074 92.7871 152.074 89.4734V0.95105C152.074 0.425781 152.5 0 153.025 0C153.551 0 153.976 0.425781 153.976 0.95105V89.4734C153.976 92.7871 156.663 95.4734 159.976 95.4734H223.063C226.377 95.4734 229.063 92.7871 229.063 89.4734V0.951172C229.063 0.425903 229.489 0 230.015 0C230.54 0 230.966 0.425903 230.966 0.951172V89.4734C230.966 92.7871 233.652 95.4734 236.966 95.4734H300.051C303.364 95.4734 306.051 92.7871 306.051 89.4734V0.951172C306.051 0.425903 306.476 0 307.002 0C307.527 0 307.953 0.425903 307.953 0.951172V89.4734C307.953 92.7871 310.639 95.4734 313.953 95.4734H377.04C380.353 95.4734 383.04 92.7871 383.04 89.4734V0.95105C383.04 0.425781 383.465 0 383.991 0C384.516 0 384.942 0.425781 384.942 0.95105V89.4734C384.942 92.7871 387.628 95.4734 390.942 95.4734H454.027C457.341 95.4734 460.027 92.7871 460.027 89.4734V0.95105C460.027 0.425781 460.453 0 460.978 0C461.503 0 461.929 0.425781 461.929 0.95105V89.4734C461.929 92.7871 464.615 95.4734 467.929 95.4734H531.014C534.328 95.4734 537.014 92.7871 537.014 89.4734V0.95105C537.014 0.425781 537.44 0 537.965 0C538.491 0 538.916 0.425781 538.916 0.95105V89.4734C538.916 92.7871 541.603 95.4734 544.916 95.4734H608.003C611.317 95.4734 614.003 92.7871 614.003 89.4734V0.95105C614.003 0.425781 614.429 0 614.955 0C615.48 0 615.906 0.425781 615.906 0.95105V89.4734C615.906 92.7871 618.592 95.4734 621.906 95.4734H684.989C688.302 95.4734 690.989 92.7871 690.989 89.4734V0.95105C690.989 0.425781 691.414 0 691.94 0C692.465 0 692.891 0.425781 692.891 0.95105V89.4734C692.891 92.7871 695.577 95.4734 698.891 95.4734H761.978C765.292 95.4734 767.978 92.7871 767.978 89.4734V0.951172C767.978 0.425903 768.404 0 768.929 0C769.454 0 769.88 0.425903 769.88 0.951172V89.4734C769.88 92.7871 772.566 95.4734 775.88 95.4734H838.965C842.279 95.4734 844.965 92.7871 844.965 89.4734V0.95105C844.965 0.425781 845.391 0 845.916 0C846.441 0 846.867 0.425781 846.867 0.95105V89.4734C846.867 92.7871 849.553 95.4734 852.867 95.4734H915.954C919.268 95.4734 921.954 92.7871 921.954 89.4734V0.95105C921.954 0.425781 922.38 0 922.905 0C923.431 0 923.856 0.425781 923.856 0.95105V89.4734C923.856 92.7871 926.543 95.4734 929.856 95.4734H992.941C996.255 95.4734 998.941 92.7871 998.941 89.4734V0.95105C998.941 0.425781 999.367 0 999.893 0C1000.42 0 1000.84 0.425781 1000.84 0.95105V89.4734C1000.84 92.7871 1003.53 95.4734 1006.84 95.4734H1069.93C1073.24 95.4734 1075.93 92.7871 1075.93 89.4734V0.95105C1075.93 0.425781 1076.36 0 1076.88 0C1077.41 0 1077.83 0.425781 1077.83 0.95105V89.4734C1077.83 92.7871 1080.52 95.4734 1083.83 95.4734H1146.92C1150.23 95.4734 1152.92 92.7871 1152.92 89.4734V0.95105C1152.92 0.425781 1153.34 0 1153.87 0C1154.39 0 1154.82 0.425781 1154.82 0.95105V89.4734C1154.82 92.7871 1157.51 95.4734 1160.82 95.4734H1223.91C1227.22 95.4734 1229.91 92.7871 1229.91 89.4734V0.951172C1229.91 0.425781 1230.33 0 1230.86 0C1231.38 0 1231.81 0.425781 1231.81 0.951172V89.4734C1231.81 92.7871 1234.5 95.4734 1237.81 95.4734H1300.89C1304.21 95.4734 1306.89 92.7871 1306.89 89.4734V0.95105C1306.89 0.425781 1307.32 0 1307.85 0C1308.37 0 1308.8 0.425781 1308.8 0.95105V89.4734C1308.8 92.7871 1311.48 95.4734 1314.8 95.4734H1377.88C1381.2 95.4734 1383.88 92.7871 1383.88 89.4734V0.951172C1383.88 0.425781 1384.31 0 1384.83 0C1385.36 0 1385.79 0.425781 1385.79 0.951172V89.4734C1385.79 92.7871 1388.47 95.4734 1391.79 95.4734H1454.87C1458.18 95.4734 1460.87 92.7871 1460.87 89.4734V0.951172C1460.87 0.425781 1461.3 0 1461.82 0C1462.35 0 1462.77 0.425781 1462.77 0.951172V89.4734C1462.77 92.7871 1465.46 95.4734 1468.77 95.4734H1531.86C1535.17 95.4734 1537.86 92.7871 1537.86 89.4734V0.95105C1537.86 0.425781 1538.29 0 1538.81 0C1539.34 0 1539.76 0.425781 1539.76 0.95105V89.4734C1539.76 92.7871 1542.45 95.4734 1545.76 95.4734H1608.85C1612.16 95.4734 1614.85 92.7871 1614.85 89.4734V0.95105C1614.85 0.425781 1615.27 0 1615.8 0C1616.32 0 1616.75 0.425781 1616.75 0.95105V89.4734C1616.75 92.7871 1619.44 95.4734 1622.75 95.4734H1685.84C1689.15 95.4734 1691.84 92.7871 1691.84 89.4734V0.951172C1691.84 0.425781 1692.26 0 1692.79 0C1693.31 0 1693.74 0.425781 1693.74 0.951172V89.4734C1693.74 92.7871 1696.42 95.4734 1699.74 95.4734H1762.82C1766.14 95.4734 1768.82 92.7871 1768.82 89.4734V0.951172C1768.82 0.425781 1769.25 0 1769.77 0C1770.3 0 1770.73 0.425781 1770.73 0.951172V89.4734C1770.73 92.7871 1773.41 95.4734 1776.73 95.4734H1839.81C1843.13 95.4734 1845.81 92.7871 1845.81 89.4734V0.951172C1845.81 0.425781 1846.24 0 1846.76 0C1847.29 0 1847.71 0.425781 1847.71 0.95105V89.4734C1847.71 92.7871 1850.4 95.4734 1853.71 95.4734H1916.8C1920.11 95.4734 1922.8 92.7871 1922.8 89.4734V0.951172C1922.8 0.425781 1923.23 0 1923.75 0C1924.28 0 1924.7 0.425781 1924.7 0.951172V89.4734C1924.7 92.7871 1927.39 95.4734 1930.7 95.4734H1993.79C1997.1 95.4734 1999.79 92.7871 1999.79 89.4734V3.31018C1999.79 2.78491 2000.21 2.35901 2000.74 2.35901C2001.26 2.35901 2001.69 2.78491 2001.69 3.31018V89.4734C2001.69 92.7871 2004.38 95.4734 2007.69 95.4734H2041.82C2042.47 95.4734 2043 96.0015 2043 96.6528C2043 97.3042 2042.47 97.8323 2041.82 97.8323H2007.69C2004.38 97.8323 2001.69 100.519 2001.69 103.832V184.949C2001.69 188.263 2004.38 190.949 2007.69 190.949H2041.82C2042.47 190.949 2043 191.477 2043 192.129C2043 192.78 2042.47 193.308 2041.82 193.308H2007.69C2004.38 193.308 2001.69 195.994 2001.69 199.308V280.422C2001.69 283.736 2004.38 286.422 2007.69 286.422H2041.82C2042.47 286.422 2043 286.951 2043 287.602C2043 288.253 2042.47 288.781 2041.82 288.781H2007.69C2004.38 288.781 2001.69 291.468 2001.69 294.781V375.896C2001.69 379.21 2004.38 381.896 2007.69 381.896H2041.82C2042.47 381.896 2043 382.424 2043 383.075C2043 383.727 2042.47 384.255 2041.82 384.255H2007.69C2004.38 384.255 2001.69 386.941 2001.69 390.255V471.372C2001.69 474.685 2004.38 477.372 2007.69 477.372H2041.82C2042.47 477.372 2043 477.9 2043 478.551C2043 479.202 2042.47 479.73 2041.82 479.73H2007.69C2004.38 479.73 2001.69 482.417 2001.69 485.73V566.845C2001.69 570.159 2004.38 572.845 2007.69 572.845H2041.82C2042.47 572.845 2043 573.373 2043 574.024C2043 574.676 2042.47 575.204 2041.82 575.204H2007.69C2004.38 575.204 2001.69 577.89 2001.69 581.204V662.32C2001.69 665.634 2004.38 668.32 2007.69 668.32H2041.82C2042.47 668.32 2043 668.849 2043 669.5C2043 670.151 2042.47 670.68 2041.82 670.68H2007.69C2004.38 670.68 2001.69 673.366 2001.69 676.68V757.794C2001.69 761.108 2004.38 763.794 2007.69 763.794H2041.82C2042.47 763.794 2043 764.322 2043 764.973C2043 765.625 2042.47 766.153 2041.82 766.153H2007.69C2004.38 766.153 2001.69 768.839 2001.69 772.153V853.27C2001.69 856.583 2004.38 859.27 2007.69 859.27H2041.82C2042.47 859.27 2043 859.798 2043 860.449C2043 861.1 2042.47 861.629 2041.82 861.629H2007.69C2004.38 861.629 2001.69 864.315 2001.69 867.629V948.743C2001.69 952.057 2004.38 954.743 2007.69 954.743H2041.82C2042.47 954.743 2043 955.271 2043 955.922C2043 956.574 2042.47 957.102 2041.82 957.102H2007.69C2004.38 957.102 2001.69 959.788 2001.69 963.102V1044.22C2001.69 1047.53 2004.38 1050.22 2007.69 1050.22H2041.82C2042.47 1050.22 2043 1050.75 2043 1051.4C2043 1052.05 2042.47 1052.58 2041.82 1052.58H2007.69C2004.38 1052.58 2001.69 1055.26 2001.69 1058.58V1139.69C2001.69 1143.01 2004.38 1145.69 2007.69 1145.69H2041.82C2042.47 1145.69 2043 1146.22 2043 1146.87C2043 1147.52 2042.47 1148.05 2041.82 1148.05H2007.69C2004.38 1148.05 2001.69 1150.74 2001.69 1154.05V1235.17C2001.69 1238.48 2004.38 1241.17 2007.69 1241.17H2041.82C2042.47 1241.17 2043 1241.69 2043 1242.34C2043 1243 2042.47 1243.52 2041.82 1243.52H2007.69ZM1999.79 1235.17C1999.79 1238.48 1997.1 1241.17 1993.79 1241.17H1930.7C1927.39 1241.17 1924.7 1238.48 1924.7 1235.17V1154.05C1924.7 1150.74 1927.39 1148.05 1930.7 1148.05H1993.79C1997.1 1148.05 1999.79 1150.74 1999.79 1154.05V1235.17ZM1999.79 1139.69C1999.79 1143.01 1997.1 1145.69 1993.79 1145.69H1930.7C1927.39 1145.69 1924.7 1143.01 1924.7 1139.69V1058.58C1924.7 1055.26 1927.39 1052.58 1930.7 1052.58H1993.79C1997.1 1052.58 1999.79 1055.26 1999.79 1058.58V1139.69ZM1999.79 1044.22C1999.79 1047.53 1997.1 1050.22 1993.79 1050.22H1930.7C1927.39 1050.22 1924.7 1047.53 1924.7 1044.22V963.102C1924.7 959.788 1927.39 957.102 1930.7 957.102H1993.79C1997.1 957.102 1999.79 959.788 1999.79 963.102V1044.22ZM1999.79 948.743C1999.79 952.057 1997.1 954.743 1993.79 954.743H1930.7C1927.39 954.743 1924.7 952.057 1924.7 948.743V867.629C1924.7 864.315 1927.39 861.629 1930.7 861.629H1993.79C1997.1 861.629 1999.79 864.315 1999.79 867.629V948.743ZM1999.79 853.27C1999.79 856.583 1997.1 859.27 1993.79 859.27H1930.7C1927.39 859.27 1924.7 856.583 1924.7 853.27V772.153C1924.7 768.839 1927.39 766.153 1930.7 766.153H1993.79C1997.1 766.153 1999.79 768.839 1999.79 772.153V853.27ZM1999.79 757.794C1999.79 761.108 1997.1 763.794 1993.79 763.794H1930.7C1927.39 763.794 1924.7 761.108 1924.7 757.794V676.68C1924.7 673.366 1927.39 670.68 1930.7 670.68H1993.79C1997.1 670.68 1999.79 673.366 1999.79 676.68V757.794ZM1999.79 662.32C1999.79 665.634 1997.1 668.32 1993.79 668.32H1930.7C1927.39 668.32 1924.7 665.634 1924.7 662.32V581.204C1924.7 577.89 1927.39 575.204 1930.7 575.204H1993.79C1997.1 575.204 1999.79 577.89 1999.79 581.204V662.32ZM1999.79 566.845C1999.79 570.159 1997.1 572.845 1993.79 572.845H1930.7C1927.39 572.845 1924.7 570.159 1924.7 566.845V485.73C1924.7 482.417 1927.39 479.73 1930.7 479.73H1993.79C1997.1 479.73 1999.79 482.417 1999.79 485.73V566.845ZM1999.79 471.372C1999.79 474.685 1997.1 477.372 1993.79 477.372H1930.7C1927.39 477.372 1924.7 474.685 1924.7 471.372V390.255C1924.7 386.941 1927.39 384.255 1930.7 384.255H1993.79C1997.1 384.255 1999.79 386.941 1999.79 390.255V471.372ZM1999.79 375.896C1999.79 379.21 1997.1 381.896 1993.79 381.896H1930.7C1927.39 381.896 1924.7 379.21 1924.7 375.896V294.781C1924.7 291.468 1927.39 288.781 1930.7 288.781H1993.79C1997.1 288.781 1999.79 291.468 1999.79 294.781V375.896ZM1999.79 280.422C1999.79 283.736 1997.1 286.422 1993.79 286.422H1930.7C1927.39 286.422 1924.7 283.736 1924.7 280.422V199.308C1924.7 195.994 1927.39 193.308 1930.7 193.308H1993.79C1997.1 193.308 1999.79 195.994 1999.79 199.308V280.422ZM1999.79 184.949C1999.79 188.263 1997.1 190.949 1993.79 190.949H1930.7C1927.39 190.949 1924.7 188.263 1924.7 184.949V103.832C1924.7 100.519 1927.39 97.8323 1930.7 97.8323H1993.79C1997.1 97.8323 1999.79 100.519 1999.79 103.832V184.949ZM1847.71 1235.17C1847.71 1238.48 1850.4 1241.17 1853.71 1241.17H1916.8C1920.11 1241.17 1922.8 1238.48 1922.8 1235.17V1154.05C1922.8 1150.74 1920.11 1148.05 1916.8 1148.05H1853.71C1850.4 1148.05 1847.71 1150.74 1847.71 1154.05V1235.17ZM1847.71 1139.69C1847.71 1143.01 1850.4 1145.69 1853.71 1145.69H1916.8C1920.11 1145.69 1922.8 1143.01 1922.8 1139.69V1058.58C1922.8 1055.26 1920.11 1052.58 1916.8 1052.58H1853.71C1850.4 1052.58 1847.71 1055.26 1847.71 1058.58V1139.69ZM1847.71 1044.22C1847.71 1047.53 1850.4 1050.22 1853.71 1050.22H1916.8C1920.11 1050.22 1922.8 1047.53 1922.8 1044.22V963.102C1922.8 959.788 1920.11 957.102 1916.8 957.102H1853.71C1850.4 957.102 1847.71 959.788 1847.71 963.102V1044.22ZM1847.71 948.743C1847.71 952.057 1850.4 954.743 1853.71 954.743H1916.8C1920.11 954.743 1922.8 952.057 1922.8 948.743V867.629C1922.8 864.315 1920.11 861.629 1916.8 861.629H1853.71C1850.4 861.629 1847.71 864.315 1847.71 867.629V948.743ZM1847.71 853.27C1847.71 856.583 1850.4 859.27 1853.71 859.27H1916.8C1920.11 859.27 1922.8 856.583 1922.8 853.27V772.153C1922.8 768.839 1920.11 766.153 1916.8 766.153H1853.71C1850.4 766.153 1847.71 768.839 1847.71 772.153V853.27ZM1847.71 757.794C1847.71 761.108 1850.4 763.794 1853.71 763.794H1916.8C1920.11 763.794 1922.8 761.108 1922.8 757.794V676.68C1922.8 673.366 1920.11 670.68 1916.8 670.68H1853.71C1850.4 670.68 1847.71 673.366 1847.71 676.68V757.794ZM1847.71 662.32C1847.71 665.634 1850.4 668.32 1853.71 668.32H1916.8C1920.11 668.32 1922.8 665.634 1922.8 662.32V581.204C1922.8 577.89 1920.11 575.204 1916.8 575.204H1853.71C1850.4 575.204 1847.71 577.89 1847.71 581.204V662.32ZM1847.71 566.845C1847.71 570.159 1850.4 572.845 1853.71 572.845H1916.8C1920.11 572.845 1922.8 570.159 1922.8 566.845V485.73C1922.8 482.417 1920.11 479.73 1916.8 479.73H1853.71C1850.4 479.73 1847.71 482.417 1847.71 485.73V566.845ZM1847.71 471.372C1847.71 474.685 1850.4 477.372 1853.71 477.372H1916.8C1920.11 477.372 1922.8 474.685 1922.8 471.372V390.255C1922.8 386.941 1920.11 384.255 1916.8 384.255H1853.71C1850.4 384.255 1847.71 386.941 1847.71 390.255V471.372ZM1847.71 375.896C1847.71 379.21 1850.4 381.896 1853.71 381.896H1916.8C1920.11 381.896 1922.8 379.21 1922.8 375.896V294.781C1922.8 291.468 1920.11 288.781 1916.8 288.781H1853.71C1850.4 288.781 1847.71 291.468 1847.71 294.781V375.896ZM1847.71 280.422C1847.71 283.736 1850.4 286.422 1853.71 286.422H1916.8C1920.11 286.422 1922.8 283.736 1922.8 280.422V199.308C1922.8 195.994 1920.11 193.308 1916.8 193.308H1853.71C1850.4 193.308 1847.71 195.994 1847.71 199.308V280.422ZM1847.71 184.949C1847.71 188.263 1850.4 190.949 1853.71 190.949H1916.8C1920.11 190.949 1922.8 188.263 1922.8 184.949V103.832C1922.8 100.519 1920.11 97.8323 1916.8 97.8323H1853.71C1850.4 97.8323 1847.71 100.519 1847.71 103.832V184.949ZM1839.81 97.8323C1843.13 97.8323 1845.81 100.519 1845.81 103.832V184.949C1845.81 188.263 1843.13 190.949 1839.81 190.949H1776.73C1773.41 190.949 1770.73 188.263 1770.73 184.949V103.832C1770.73 100.519 1773.41 97.8323 1776.73 97.8323H1839.81ZM1839.81 193.308C1843.13 193.308 1845.81 195.994 1845.81 199.308V280.422C1845.81 283.736 1843.13 286.422 1839.81 286.422H1776.73C1773.41 286.422 1770.73 283.736 1770.73 280.422V199.308C1770.73 195.994 1773.41 193.308 1776.73 193.308H1839.81ZM1839.81 288.781C1843.13 288.781 1845.81 291.468 1845.81 294.781V375.896C1845.81 379.21 1843.13 381.896 1839.81 381.896H1776.73C1773.41 381.896 1770.73 379.21 1770.73 375.896V294.781C1770.73 291.468 1773.41 288.781 1776.73 288.781H1839.81ZM1839.81 384.255C1843.13 384.255 1845.81 386.941 1845.81 390.255V471.372C1845.81 474.685 1843.13 477.372 1839.81 477.372H1776.73C1773.41 477.372 1770.73 474.685 1770.73 471.372V390.255C1770.73 386.941 1773.41 384.255 1776.73 384.255H1839.81ZM1839.81 479.73C1843.13 479.73 1845.81 482.417 1845.81 485.73V566.845C1845.81 570.159 1843.13 572.845 1839.81 572.845H1776.73C1773.41 572.845 1770.73 570.159 1770.73 566.845V485.73C1770.73 482.417 1773.41 479.73 1776.73 479.73H1839.81ZM1839.81 575.204C1843.13 575.204 1845.81 577.89 1845.81 581.204V662.32C1845.81 665.634 1843.13 668.32 1839.81 668.32H1776.73C1773.41 668.32 1770.73 665.634 1770.73 662.32V581.204C1770.73 577.89 1773.41 575.204 1776.73 575.204H1839.81ZM1839.81 670.68C1843.13 670.68 1845.81 673.366 1845.81 676.68V757.794C1845.81 761.108 1843.13 763.794 1839.81 763.794H1776.73C1773.41 763.794 1770.73 761.108 1770.73 757.794V676.68C1770.73 673.366 1773.41 670.68 1776.73 670.68H1839.81ZM1839.81 766.153C1843.13 766.153 1845.81 768.839 1845.81 772.153V853.27C1845.81 856.583 1843.13 859.27 1839.81 859.27H1776.73C1773.41 859.27 1770.73 856.583 1770.73 853.27V772.153C1770.73 768.839 1773.41 766.153 1776.73 766.153H1839.81ZM1839.81 861.629C1843.13 861.629 1845.81 864.315 1845.81 867.629V948.743C1845.81 952.057 1843.13 954.743 1839.81 954.743H1776.73C1773.41 954.743 1770.73 952.057 1770.73 948.743V867.629C1770.73 864.315 1773.41 861.629 1776.73 861.629H1839.81ZM1839.81 957.102C1843.13 957.102 1845.81 959.788 1845.81 963.102V1044.22C1845.81 1047.53 1843.13 1050.22 1839.81 1050.22H1776.73C1773.41 1050.22 1770.73 1047.53 1770.73 1044.22V963.102C1770.73 959.788 1773.41 957.102 1776.73 957.102H1839.81ZM1839.81 1052.58C1843.13 1052.58 1845.81 1055.26 1845.81 1058.58V1139.69C1845.81 1143.01 1843.13 1145.69 1839.81 1145.69H1776.73C1773.41 1145.69 1770.73 1143.01 1770.73 1139.69V1058.58C1770.73 1055.26 1773.41 1052.58 1776.73 1052.58H1839.81ZM1839.81 1148.05C1843.13 1148.05 1845.81 1150.74 1845.81 1154.05V1235.17C1845.81 1238.48 1843.13 1241.17 1839.81 1241.17H1776.73C1773.41 1241.17 1770.73 1238.48 1770.73 1235.17V1154.05C1770.73 1150.74 1773.41 1148.05 1776.73 1148.05H1839.81ZM1693.74 1235.17C1693.74 1238.48 1696.42 1241.17 1699.74 1241.17H1762.82C1766.14 1241.17 1768.82 1238.48 1768.82 1235.17V1154.05C1768.82 1150.74 1766.14 1148.05 1762.82 1148.05H1699.74C1696.42 1148.05 1693.74 1150.74 1693.74 1154.05V1235.17ZM1693.74 1139.69C1693.74 1143.01 1696.42 1145.69 1699.74 1145.69H1762.82C1766.14 1145.69 1768.82 1143.01 1768.82 1139.69V1058.58C1768.82 1055.26 1766.14 1052.58 1762.82 1052.58H1699.74C1696.42 1052.58 1693.74 1055.26 1693.74 1058.58V1139.69ZM1693.74 1044.22C1693.74 1047.53 1696.42 1050.22 1699.74 1050.22H1762.82C1766.14 1050.22 1768.82 1047.53 1768.82 1044.22V963.102C1768.82 959.788 1766.14 957.102 1762.82 957.102H1699.74C1696.42 957.102 1693.74 959.788 1693.74 963.102V1044.22ZM1693.74 948.743C1693.74 952.057 1696.42 954.743 1699.74 954.743H1762.82C1766.14 954.743 1768.82 952.057 1768.82 948.743V867.629C1768.82 864.315 1766.14 861.629 1762.82 861.629H1699.74C1696.42 861.629 1693.74 864.315 1693.74 867.629V948.743ZM1693.74 853.27C1693.74 856.583 1696.42 859.27 1699.74 859.27H1762.82C1766.14 859.27 1768.82 856.583 1768.82 853.27V772.153C1768.82 768.839 1766.14 766.153 1762.82 766.153H1699.74C1696.42 766.153 1693.74 768.839 1693.74 772.153V853.27ZM1693.74 757.794C1693.74 761.108 1696.42 763.794 1699.74 763.794H1762.82C1766.14 763.794 1768.82 761.108 1768.82 757.794V676.68C1768.82 673.366 1766.14 670.68 1762.82 670.68H1699.74C1696.42 670.68 1693.74 673.366 1693.74 676.68V757.794ZM1693.74 662.32C1693.74 665.634 1696.42 668.32 1699.74 668.32H1762.82C1766.14 668.32 1768.82 665.634 1768.82 662.32V581.204C1768.82 577.89 1766.14 575.204 1762.82 575.204H1699.74C1696.42 575.204 1693.74 577.89 1693.74 581.204V662.32ZM1693.74 566.845C1693.74 570.159 1696.42 572.845 1699.74 572.845H1762.82C1766.14 572.845 1768.82 570.159 1768.82 566.845V485.73C1768.82 482.417 1766.14 479.73 1762.82 479.73H1699.74C1696.42 479.73 1693.74 482.417 1693.74 485.73V566.845ZM1693.74 471.372C1693.74 474.685 1696.42 477.372 1699.74 477.372H1762.82C1766.14 477.372 1768.82 474.685 1768.82 471.372V390.255C1768.82 386.941 1766.14 384.255 1762.82 384.255H1699.74C1696.42 384.255 1693.74 386.941 1693.74 390.255V471.372ZM1693.74 375.896C1693.74 379.21 1696.42 381.896 1699.74 381.896H1762.82C1766.14 381.896 1768.82 379.21 1768.82 375.896V294.781C1768.82 291.468 1766.14 288.781 1762.82 288.781H1699.74C1696.42 288.781 1693.74 291.468 1693.74 294.781V375.896ZM1693.74 280.422C1693.74 283.736 1696.42 286.422 1699.74 286.422H1762.82C1766.14 286.422 1768.82 283.736 1768.82 280.422V199.308C1768.82 195.994 1766.14 193.308 1762.82 193.308H1699.74C1696.42 193.308 1693.74 195.994 1693.74 199.308V280.422ZM1693.74 184.949C1693.74 188.263 1696.42 190.949 1699.74 190.949H1762.82C1766.14 190.949 1768.82 188.263 1768.82 184.949V103.832C1768.82 100.519 1766.14 97.8323 1762.82 97.8323H1699.74C1696.42 97.8323 1693.74 100.519 1693.74 103.832V184.949ZM1685.84 97.8323C1689.15 97.8323 1691.84 100.519 1691.84 103.832V184.949C1691.84 188.263 1689.15 190.949 1685.84 190.949H1622.75C1619.44 190.949 1616.75 188.263 1616.75 184.949V103.832C1616.75 100.519 1619.44 97.8323 1622.75 97.8323H1685.84ZM1685.84 193.308C1689.15 193.308 1691.84 195.994 1691.84 199.308V280.422C1691.84 283.736 1689.15 286.422 1685.84 286.422H1622.75C1619.44 286.422 1616.75 283.736 1616.75 280.422V199.308C1616.75 195.994 1619.44 193.308 1622.75 193.308H1685.84ZM1685.84 288.781C1689.15 288.781 1691.84 291.468 1691.84 294.781V375.896C1691.84 379.21 1689.15 381.896 1685.84 381.896H1622.75C1619.44 381.896 1616.75 379.21 1616.75 375.896V294.781C1616.75 291.468 1619.44 288.781 1622.75 288.781H1685.84ZM1685.84 384.255C1689.15 384.255 1691.84 386.941 1691.84 390.255V471.372C1691.84 474.685 1689.15 477.372 1685.84 477.372H1622.75C1619.44 477.372 1616.75 474.685 1616.75 471.372V390.255C1616.75 386.941 1619.44 384.255 1622.75 384.255H1685.84ZM1685.84 479.73C1689.15 479.73 1691.84 482.417 1691.84 485.73V566.845C1691.84 570.159 1689.15 572.845 1685.84 572.845H1622.75C1619.44 572.845 1616.75 570.159 1616.75 566.845V485.73C1616.75 482.417 1619.44 479.73 1622.75 479.73H1685.84ZM1685.84 575.204C1689.15 575.204 1691.84 577.89 1691.84 581.204V662.32C1691.84 665.634 1689.15 668.32 1685.84 668.32H1622.75C1619.44 668.32 1616.75 665.634 1616.75 662.32V581.204C1616.75 577.89 1619.44 575.204 1622.75 575.204H1685.84ZM1685.84 670.68C1689.15 670.68 1691.84 673.366 1691.84 676.68V757.794C1691.84 761.108 1689.15 763.794 1685.84 763.794H1622.75C1619.44 763.794 1616.75 761.108 1616.75 757.794V676.68C1616.75 673.366 1619.44 670.68 1622.75 670.68H1685.84ZM1685.84 766.153C1689.15 766.153 1691.84 768.839 1691.84 772.153V853.27C1691.84 856.583 1689.15 859.27 1685.84 859.27H1622.75C1619.44 859.27 1616.75 856.583 1616.75 853.27V772.153C1616.75 768.839 1619.44 766.153 1622.75 766.153H1685.84ZM1685.84 861.629C1689.15 861.629 1691.84 864.315 1691.84 867.629V948.743C1691.84 952.057 1689.15 954.743 1685.84 954.743H1622.75C1619.44 954.743 1616.75 952.057 1616.75 948.743V867.629C1616.75 864.315 1619.44 861.629 1622.75 861.629H1685.84ZM1685.84 957.102C1689.15 957.102 1691.84 959.788 1691.84 963.102V1044.22C1691.84 1047.53 1689.15 1050.22 1685.84 1050.22H1622.75C1619.44 1050.22 1616.75 1047.53 1616.75 1044.22V963.102C1616.75 959.788 1619.44 957.102 1622.75 957.102H1685.84ZM1685.84 1052.58C1689.15 1052.58 1691.84 1055.26 1691.84 1058.58V1139.69C1691.84 1143.01 1689.15 1145.69 1685.84 1145.69H1622.75C1619.44 1145.69 1616.75 1143.01 1616.75 1139.69V1058.58C1616.75 1055.26 1619.44 1052.58 1622.75 1052.58H1685.84ZM1685.84 1148.05C1689.15 1148.05 1691.84 1150.74 1691.84 1154.05V1235.17C1691.84 1238.48 1689.15 1241.17 1685.84 1241.17H1622.75C1619.44 1241.17 1616.75 1238.48 1616.75 1235.17V1154.05C1616.75 1150.74 1619.44 1148.05 1622.75 1148.05H1685.84ZM1539.76 1235.17C1539.76 1238.48 1542.45 1241.17 1545.76 1241.17H1608.85C1612.16 1241.17 1614.85 1238.48 1614.85 1235.17V1154.05C1614.85 1150.74 1612.16 1148.05 1608.85 1148.05H1545.76C1542.45 1148.05 1539.76 1150.74 1539.76 1154.05V1235.17ZM1539.76 1139.69C1539.76 1143.01 1542.45 1145.69 1545.76 1145.69H1608.85C1612.16 1145.69 1614.85 1143.01 1614.85 1139.69V1058.58C1614.85 1055.26 1612.16 1052.58 1608.85 1052.58H1545.76C1542.45 1052.58 1539.76 1055.26 1539.76 1058.58V1139.69ZM1539.76 1044.22C1539.76 1047.53 1542.45 1050.22 1545.76 1050.22H1608.85C1612.16 1050.22 1614.85 1047.53 1614.85 1044.22V963.102C1614.85 959.788 1612.16 957.102 1608.85 957.102H1545.76C1542.45 957.102 1539.76 959.788 1539.76 963.102V1044.22ZM1539.76 948.743C1539.76 952.057 1542.45 954.743 1545.76 954.743H1608.85C1612.16 954.743 1614.85 952.057 1614.85 948.743V867.629C1614.85 864.315 1612.16 861.629 1608.85 861.629H1545.76C1542.45 861.629 1539.76 864.315 1539.76 867.629V948.743ZM1539.76 853.27C1539.76 856.583 1542.45 859.27 1545.76 859.27H1608.85C1612.16 859.27 1614.85 856.583 1614.85 853.27V772.153C1614.85 768.839 1612.16 766.153 1608.85 766.153H1545.76C1542.45 766.153 1539.76 768.839 1539.76 772.153V853.27ZM1539.76 757.794C1539.76 761.108 1542.45 763.794 1545.76 763.794H1608.85C1612.16 763.794 1614.85 761.108 1614.85 757.794V676.68C1614.85 673.366 1612.16 670.68 1608.85 670.68H1545.76C1542.45 670.68 1539.76 673.366 1539.76 676.68V757.794ZM1539.76 662.32C1539.76 665.634 1542.45 668.32 1545.76 668.32H1608.85C1612.16 668.32 1614.85 665.634 1614.85 662.32V581.204C1614.85 577.89 1612.16 575.204 1608.85 575.204H1545.76C1542.45 575.204 1539.76 577.89 1539.76 581.204V662.32ZM1539.76 566.845C1539.76 570.159 1542.45 572.845 1545.76 572.845H1608.85C1612.16 572.845 1614.85 570.159 1614.85 566.845V485.73C1614.85 482.417 1612.16 479.73 1608.85 479.73H1545.76C1542.45 479.73 1539.76 482.417 1539.76 485.73V566.845ZM1539.76 471.372C1539.76 474.685 1542.45 477.372 1545.76 477.372H1608.85C1612.16 477.372 1614.85 474.685 1614.85 471.372V390.255C1614.85 386.941 1612.16 384.255 1608.85 384.255H1545.76C1542.45 384.255 1539.76 386.941 1539.76 390.255V471.372ZM1539.76 375.896C1539.76 379.21 1542.45 381.896 1545.76 381.896H1608.85C1612.16 381.896 1614.85 379.21 1614.85 375.896V294.781C1614.85 291.468 1612.16 288.781 1608.85 288.781H1545.76C1542.45 288.781 1539.76 291.468 1539.76 294.781V375.896ZM1539.76 280.422C1539.76 283.736 1542.45 286.422 1545.76 286.422H1608.85C1612.16 286.422 1614.85 283.736 1614.85 280.422V199.308C1614.85 195.994 1612.16 193.308 1608.85 193.308H1545.76C1542.45 193.308 1539.76 195.994 1539.76 199.308V280.422ZM1539.76 184.949C1539.76 188.263 1542.45 190.949 1545.76 190.949H1608.85C1612.16 190.949 1614.85 188.263 1614.85 184.949V103.832C1614.85 100.519 1612.16 97.8323 1608.85 97.8323H1545.76C1542.45 97.8323 1539.76 100.519 1539.76 103.832V184.949ZM1531.86 97.8323C1535.17 97.8323 1537.86 100.519 1537.86 103.832V184.949C1537.86 188.263 1535.17 190.949 1531.86 190.949H1468.77C1465.46 190.949 1462.77 188.263 1462.77 184.949V103.832C1462.77 100.519 1465.46 97.8323 1468.77 97.8323H1531.86ZM1531.86 193.308C1535.17 193.308 1537.86 195.994 1537.86 199.308V280.422C1537.86 283.736 1535.17 286.422 1531.86 286.422H1468.77C1465.46 286.422 1462.77 283.736 1462.77 280.422V199.308C1462.77 195.994 1465.46 193.308 1468.77 193.308H1531.86ZM1531.86 288.781C1535.17 288.781 1537.86 291.468 1537.86 294.781V375.896C1537.86 379.21 1535.17 381.896 1531.86 381.896H1468.77C1465.46 381.896 1462.77 379.21 1462.77 375.896V294.781C1462.77 291.468 1465.46 288.781 1468.77 288.781H1531.86ZM1531.86 384.255C1535.17 384.255 1537.86 386.941 1537.86 390.255V471.372C1537.86 474.685 1535.17 477.372 1531.86 477.372H1468.77C1465.46 477.372 1462.77 474.685 1462.77 471.372V390.255C1462.77 386.941 1465.46 384.255 1468.77 384.255H1531.86ZM1531.86 479.73C1535.17 479.73 1537.86 482.417 1537.86 485.73V566.845C1537.86 570.159 1535.17 572.845 1531.86 572.845H1468.77C1465.46 572.845 1462.77 570.159 1462.77 566.845V485.73C1462.77 482.417 1465.46 479.73 1468.77 479.73H1531.86ZM1531.86 575.204C1535.17 575.204 1537.86 577.89 1537.86 581.204V662.32C1537.86 665.634 1535.17 668.32 1531.86 668.32H1468.77C1465.46 668.32 1462.77 665.634 1462.77 662.32V581.204C1462.77 577.89 1465.46 575.204 1468.77 575.204H1531.86ZM1531.86 670.68C1535.17 670.68 1537.86 673.366 1537.86 676.68V757.794C1537.86 761.108 1535.17 763.794 1531.86 763.794H1468.77C1465.46 763.794 1462.77 761.108 1462.77 757.794V676.68C1462.77 673.366 1465.46 670.68 1468.77 670.68H1531.86ZM1531.86 766.153C1535.17 766.153 1537.86 768.839 1537.86 772.153V853.27C1537.86 856.583 1535.17 859.27 1531.86 859.27H1468.77C1465.46 859.27 1462.77 856.583 1462.77 853.27V772.153C1462.77 768.839 1465.46 766.153 1468.77 766.153H1531.86ZM1531.86 861.629C1535.17 861.629 1537.86 864.315 1537.86 867.629V948.743C1537.86 952.057 1535.17 954.743 1531.86 954.743H1468.77C1465.46 954.743 1462.77 952.057 1462.77 948.743V867.629C1462.77 864.315 1465.46 861.629 1468.77 861.629H1531.86ZM1531.86 957.102C1535.17 957.102 1537.86 959.788 1537.86 963.102V1044.22C1537.86 1047.53 1535.17 1050.22 1531.86 1050.22H1468.77C1465.46 1050.22 1462.77 1047.53 1462.77 1044.22V963.102C1462.77 959.788 1465.46 957.102 1468.77 957.102H1531.86ZM1531.86 1052.58C1535.17 1052.58 1537.86 1055.26 1537.86 1058.58V1139.69C1537.86 1143.01 1535.17 1145.69 1531.86 1145.69H1468.77C1465.46 1145.69 1462.77 1143.01 1462.77 1139.69V1058.58C1462.77 1055.26 1465.46 1052.58 1468.77 1052.58H1531.86ZM1531.86 1148.05C1535.17 1148.05 1537.86 1150.74 1537.86 1154.05V1235.17C1537.86 1238.48 1535.17 1241.17 1531.86 1241.17H1468.77C1465.46 1241.17 1462.77 1238.48 1462.77 1235.17V1154.05C1462.77 1150.74 1465.46 1148.05 1468.77 1148.05H1531.86ZM1385.79 1235.17C1385.79 1238.48 1388.47 1241.17 1391.79 1241.17H1454.87C1458.18 1241.17 1460.87 1238.48 1460.87 1235.17V1154.05C1460.87 1150.74 1458.18 1148.05 1454.87 1148.05H1391.79C1388.47 1148.05 1385.79 1150.74 1385.79 1154.05V1235.17ZM1385.79 1139.69C1385.79 1143.01 1388.47 1145.69 1391.79 1145.69H1454.87C1458.18 1145.69 1460.87 1143.01 1460.87 1139.69V1058.58C1460.87 1055.26 1458.18 1052.58 1454.87 1052.58H1391.79C1388.47 1052.58 1385.79 1055.26 1385.79 1058.58V1139.69ZM1385.79 1044.22C1385.79 1047.53 1388.47 1050.22 1391.79 1050.22H1454.87C1458.18 1050.22 1460.87 1047.53 1460.87 1044.22V963.102C1460.87 959.788 1458.18 957.102 1454.87 957.102H1391.79C1388.47 957.102 1385.79 959.788 1385.79 963.102V1044.22ZM1385.79 948.743C1385.79 952.057 1388.47 954.743 1391.79 954.743H1454.87C1458.18 954.743 1460.87 952.057 1460.87 948.743V867.629C1460.87 864.315 1458.18 861.629 1454.87 861.629H1391.79C1388.47 861.629 1385.79 864.315 1385.79 867.629V948.743ZM1385.79 853.27C1385.79 856.583 1388.47 859.27 1391.79 859.27H1454.87C1458.18 859.27 1460.87 856.583 1460.87 853.27V772.153C1460.87 768.839 1458.18 766.153 1454.87 766.153H1391.79C1388.47 766.153 1385.79 768.839 1385.79 772.153V853.27ZM1385.79 757.794C1385.79 761.108 1388.47 763.794 1391.79 763.794H1454.87C1458.18 763.794 1460.87 761.108 1460.87 757.794V676.68C1460.87 673.366 1458.18 670.68 1454.87 670.68H1391.79C1388.47 670.68 1385.79 673.366 1385.79 676.68V757.794ZM1385.79 662.32C1385.79 665.634 1388.47 668.32 1391.79 668.32H1454.87C1458.18 668.32 1460.87 665.634 1460.87 662.32V581.204C1460.87 577.89 1458.18 575.204 1454.87 575.204H1391.79C1388.47 575.204 1385.79 577.89 1385.79 581.204V662.32ZM1385.79 566.845C1385.79 570.159 1388.47 572.845 1391.79 572.845H1454.87C1458.18 572.845 1460.87 570.159 1460.87 566.845V485.73C1460.87 482.417 1458.18 479.73 1454.87 479.73H1391.79C1388.47 479.73 1385.79 482.417 1385.79 485.73V566.845ZM1385.79 471.372C1385.79 474.685 1388.47 477.372 1391.79 477.372H1454.87C1458.18 477.372 1460.87 474.685 1460.87 471.372V390.255C1460.87 386.941 1458.18 384.255 1454.87 384.255H1391.79C1388.47 384.255 1385.79 386.941 1385.79 390.255V471.372ZM1385.79 375.896C1385.79 379.21 1388.47 381.896 1391.79 381.896H1454.87C1458.18 381.896 1460.87 379.21 1460.87 375.896V294.781C1460.87 291.468 1458.18 288.781 1454.87 288.781H1391.79C1388.47 288.781 1385.79 291.468 1385.79 294.781V375.896ZM1385.79 280.422C1385.79 283.736 1388.47 286.422 1391.79 286.422H1454.87C1458.18 286.422 1460.87 283.736 1460.87 280.422V199.308C1460.87 195.994 1458.18 193.308 1454.87 193.308H1391.79C1388.47 193.308 1385.79 195.994 1385.79 199.308V280.422ZM1385.79 184.949C1385.79 188.263 1388.47 190.949 1391.79 190.949H1454.87C1458.18 190.949 1460.87 188.263 1460.87 184.949V103.832C1460.87 100.519 1458.18 97.8323 1454.87 97.8323H1391.79C1388.47 97.8323 1385.79 100.519 1385.79 103.832V184.949ZM1377.88 97.8323C1381.2 97.8323 1383.88 100.519 1383.88 103.832V184.949C1383.88 188.263 1381.2 190.949 1377.88 190.949H1314.8C1311.48 190.949 1308.8 188.263 1308.8 184.949V103.832C1308.8 100.519 1311.48 97.8323 1314.8 97.8323H1377.88ZM1377.88 193.308C1381.2 193.308 1383.88 195.994 1383.88 199.308V280.422C1383.88 283.736 1381.2 286.422 1377.88 286.422H1314.8C1311.48 286.422 1308.8 283.736 1308.8 280.422V199.308C1308.8 195.994 1311.48 193.308 1314.8 193.308H1377.88ZM1377.88 288.781C1381.2 288.781 1383.88 291.468 1383.88 294.781V375.896C1383.88 379.21 1381.2 381.896 1377.88 381.896H1314.8C1311.48 381.896 1308.8 379.21 1308.8 375.896V294.781C1308.8 291.468 1311.48 288.781 1314.8 288.781H1377.88ZM1377.88 384.255C1381.2 384.255 1383.88 386.941 1383.88 390.255V471.372C1383.88 474.685 1381.2 477.372 1377.88 477.372H1314.8C1311.48 477.372 1308.8 474.685 1308.8 471.372V390.255C1308.8 386.941 1311.48 384.255 1314.8 384.255H1377.88ZM1377.88 479.73C1381.2 479.73 1383.88 482.417 1383.88 485.73V566.845C1383.88 570.159 1381.2 572.845 1377.88 572.845H1314.8C1311.48 572.845 1308.8 570.159 1308.8 566.845V485.73C1308.8 482.417 1311.48 479.73 1314.8 479.73H1377.88ZM1377.88 575.204C1381.2 575.204 1383.88 577.89 1383.88 581.204V662.32C1383.88 665.634 1381.2 668.32 1377.88 668.32H1314.8C1311.48 668.32 1308.8 665.634 1308.8 662.32V581.204C1308.8 577.89 1311.48 575.204 1314.8 575.204H1377.88ZM1377.88 670.68C1381.2 670.68 1383.88 673.366 1383.88 676.68V757.794C1383.88 761.108 1381.2 763.794 1377.88 763.794H1314.8C1311.48 763.794 1308.8 761.108 1308.8 757.794V676.68C1308.8 673.366 1311.48 670.68 1314.8 670.68H1377.88ZM1377.88 766.153C1381.2 766.153 1383.88 768.839 1383.88 772.153V853.27C1383.88 856.583 1381.2 859.27 1377.88 859.27H1314.8C1311.48 859.27 1308.8 856.583 1308.8 853.27V772.153C1308.8 768.839 1311.48 766.153 1314.8 766.153H1377.88ZM1377.88 861.629C1381.2 861.629 1383.88 864.315 1383.88 867.629V948.743C1383.88 952.057 1381.2 954.743 1377.88 954.743H1314.8C1311.48 954.743 1308.8 952.057 1308.8 948.743V867.629C1308.8 864.315 1311.48 861.629 1314.8 861.629H1377.88ZM1377.88 957.102C1381.2 957.102 1383.88 959.788 1383.88 963.102V1044.22C1383.88 1047.53 1381.2 1050.22 1377.88 1050.22H1314.8C1311.48 1050.22 1308.8 1047.53 1308.8 1044.22V963.102C1308.8 959.788 1311.48 957.102 1314.8 957.102H1377.88ZM1377.88 1052.58C1381.2 1052.58 1383.88 1055.26 1383.88 1058.58V1139.69C1383.88 1143.01 1381.2 1145.69 1377.88 1145.69H1314.8C1311.48 1145.69 1308.8 1143.01 1308.8 1139.69V1058.58C1308.8 1055.26 1311.48 1052.58 1314.8 1052.58H1377.88ZM1377.88 1148.05C1381.2 1148.05 1383.88 1150.74 1383.88 1154.05V1235.17C1383.88 1238.48 1381.2 1241.17 1377.88 1241.17H1314.8C1311.48 1241.17 1308.8 1238.48 1308.8 1235.17V1154.05C1308.8 1150.74 1311.48 1148.05 1314.8 1148.05H1377.88ZM1231.81 1235.17C1231.81 1238.48 1234.5 1241.17 1237.81 1241.17H1300.89C1304.21 1241.17 1306.89 1238.48 1306.89 1235.17V1154.05C1306.89 1150.74 1304.21 1148.05 1300.89 1148.05H1237.81C1234.5 1148.05 1231.81 1150.74 1231.81 1154.05V1235.17ZM1231.81 1139.69C1231.81 1143.01 1234.5 1145.69 1237.81 1145.69H1300.89C1304.21 1145.69 1306.89 1143.01 1306.89 1139.69V1058.58C1306.89 1055.26 1304.21 1052.58 1300.89 1052.58H1237.81C1234.5 1052.58 1231.81 1055.26 1231.81 1058.58V1139.69ZM1231.81 1044.22C1231.81 1047.53 1234.5 1050.22 1237.81 1050.22H1300.89C1304.21 1050.22 1306.89 1047.53 1306.89 1044.22V963.102C1306.89 959.788 1304.21 957.102 1300.89 957.102H1237.81C1234.5 957.102 1231.81 959.788 1231.81 963.102V1044.22ZM1231.81 948.743C1231.81 952.057 1234.5 954.743 1237.81 954.743H1300.89C1304.21 954.743 1306.89 952.057 1306.89 948.743V867.629C1306.89 864.315 1304.21 861.629 1300.89 861.629H1237.81C1234.5 861.629 1231.81 864.315 1231.81 867.629V948.743ZM1231.81 853.27C1231.81 856.583 1234.5 859.27 1237.81 859.27H1300.89C1304.21 859.27 1306.89 856.583 1306.89 853.27V772.153C1306.89 768.839 1304.21 766.153 1300.89 766.153H1237.81C1234.5 766.153 1231.81 768.839 1231.81 772.153V853.27ZM1231.81 757.794C1231.81 761.108 1234.5 763.794 1237.81 763.794H1300.89C1304.21 763.794 1306.89 761.108 1306.89 757.794V676.68C1306.89 673.366 1304.21 670.68 1300.89 670.68H1237.81C1234.5 670.68 1231.81 673.366 1231.81 676.68V757.794ZM1231.81 662.32C1231.81 665.634 1234.5 668.32 1237.81 668.32H1300.89C1304.21 668.32 1306.89 665.634 1306.89 662.32V581.204C1306.89 577.89 1304.21 575.204 1300.89 575.204H1237.81C1234.5 575.204 1231.81 577.89 1231.81 581.204V662.32ZM1231.81 566.845C1231.81 570.159 1234.5 572.845 1237.81 572.845H1300.89C1304.21 572.845 1306.89 570.159 1306.89 566.845V485.73C1306.89 482.417 1304.21 479.73 1300.89 479.73H1237.81C1234.5 479.73 1231.81 482.417 1231.81 485.73V566.845ZM1231.81 471.372C1231.81 474.685 1234.5 477.372 1237.81 477.372H1300.89C1304.21 477.372 1306.89 474.685 1306.89 471.372V390.255C1306.89 386.941 1304.21 384.255 1300.89 384.255H1237.81C1234.5 384.255 1231.81 386.941 1231.81 390.255V471.372ZM1231.81 375.896C1231.81 379.21 1234.5 381.896 1237.81 381.896H1300.89C1304.21 381.896 1306.89 379.21 1306.89 375.896V294.781C1306.89 291.468 1304.21 288.781 1300.89 288.781H1237.81C1234.5 288.781 1231.81 291.468 1231.81 294.781V375.896ZM1231.81 280.422C1231.81 283.736 1234.5 286.422 1237.81 286.422H1300.89C1304.21 286.422 1306.89 283.736 1306.89 280.422V199.308C1306.89 195.994 1304.21 193.308 1300.89 193.308H1237.81C1234.5 193.308 1231.81 195.994 1231.81 199.308V280.422ZM1231.81 184.949C1231.81 188.263 1234.5 190.949 1237.81 190.949H1300.89C1304.21 190.949 1306.89 188.263 1306.89 184.949V103.832C1306.89 100.519 1304.21 97.8323 1300.89 97.8323H1237.81C1234.5 97.8323 1231.81 100.519 1231.81 103.832V184.949ZM1223.91 97.8323C1227.22 97.8323 1229.91 100.519 1229.91 103.832V184.949C1229.91 188.263 1227.22 190.949 1223.91 190.949H1160.82C1157.51 190.949 1154.82 188.263 1154.82 184.949V103.832C1154.82 100.519 1157.51 97.8323 1160.82 97.8323H1223.91ZM1223.91 193.308C1227.22 193.308 1229.91 195.994 1229.91 199.308V280.422C1229.91 283.736 1227.22 286.422 1223.91 286.422H1160.82C1157.51 286.422 1154.82 283.736 1154.82 280.422V199.308C1154.82 195.994 1157.51 193.308 1160.82 193.308H1223.91ZM1223.91 288.781C1227.22 288.781 1229.91 291.468 1229.91 294.781V375.896C1229.91 379.21 1227.22 381.896 1223.91 381.896H1160.82C1157.51 381.896 1154.82 379.21 1154.82 375.896V294.781C1154.82 291.468 1157.51 288.781 1160.82 288.781H1223.91ZM1223.91 384.255C1227.22 384.255 1229.91 386.941 1229.91 390.255V471.372C1229.91 474.685 1227.22 477.372 1223.91 477.372H1160.82C1157.51 477.372 1154.82 474.685 1154.82 471.372V390.255C1154.82 386.941 1157.51 384.255 1160.82 384.255H1223.91ZM1223.91 479.73C1227.22 479.73 1229.91 482.417 1229.91 485.73V566.845C1229.91 570.159 1227.22 572.845 1223.91 572.845H1160.82C1157.51 572.845 1154.82 570.159 1154.82 566.845V485.73C1154.82 482.417 1157.51 479.73 1160.82 479.73H1223.91ZM1223.91 575.204C1227.22 575.204 1229.91 577.89 1229.91 581.204V662.32C1229.91 665.634 1227.22 668.32 1223.91 668.32H1160.82C1157.51 668.32 1154.82 665.634 1154.82 662.32V581.204C1154.82 577.89 1157.51 575.204 1160.82 575.204H1223.91ZM1223.91 670.68C1227.22 670.68 1229.91 673.366 1229.91 676.68V757.794C1229.91 761.108 1227.22 763.794 1223.91 763.794H1160.82C1157.51 763.794 1154.82 761.108 1154.82 757.794V676.68C1154.82 673.366 1157.51 670.68 1160.82 670.68H1223.91ZM1223.91 766.153C1227.22 766.153 1229.91 768.839 1229.91 772.153V853.27C1229.91 856.583 1227.22 859.27 1223.91 859.27H1160.82C1157.51 859.27 1154.82 856.583 1154.82 853.27V772.153C1154.82 768.839 1157.51 766.153 1160.82 766.153H1223.91ZM1223.91 861.629C1227.22 861.629 1229.91 864.315 1229.91 867.629V948.743C1229.91 952.057 1227.22 954.743 1223.91 954.743H1160.82C1157.51 954.743 1154.82 952.057 1154.82 948.743V867.629C1154.82 864.315 1157.51 861.629 1160.82 861.629H1223.91ZM1223.91 957.102C1227.22 957.102 1229.91 959.788 1229.91 963.102V1044.22C1229.91 1047.53 1227.22 1050.22 1223.91 1050.22H1160.82C1157.51 1050.22 1154.82 1047.53 1154.82 1044.22V963.102C1154.82 959.788 1157.51 957.102 1160.82 957.102H1223.91ZM1223.91 1052.58C1227.22 1052.58 1229.91 1055.26 1229.91 1058.58V1139.69C1229.91 1143.01 1227.22 1145.69 1223.91 1145.69H1160.82C1157.51 1145.69 1154.82 1143.01 1154.82 1139.69V1058.58C1154.82 1055.26 1157.51 1052.58 1160.82 1052.58H1223.91ZM1223.91 1148.05C1227.22 1148.05 1229.91 1150.74 1229.91 1154.05V1235.17C1229.91 1238.48 1227.22 1241.17 1223.91 1241.17H1160.82C1157.51 1241.17 1154.82 1238.48 1154.82 1235.17V1154.05C1154.82 1150.74 1157.51 1148.05 1160.82 1148.05H1223.91ZM1077.83 1235.17C1077.83 1238.48 1080.52 1241.17 1083.83 1241.17H1146.92C1150.23 1241.17 1152.92 1238.48 1152.92 1235.17V1154.05C1152.92 1150.74 1150.23 1148.05 1146.92 1148.05H1083.83C1080.52 1148.05 1077.83 1150.74 1077.83 1154.05V1235.17ZM1077.83 1139.69C1077.83 1143.01 1080.52 1145.69 1083.83 1145.69H1146.92C1150.23 1145.69 1152.92 1143.01 1152.92 1139.69V1058.58C1152.92 1055.26 1150.23 1052.58 1146.92 1052.58H1083.83C1080.52 1052.58 1077.83 1055.26 1077.83 1058.58V1139.69ZM1077.83 1044.22C1077.83 1047.53 1080.52 1050.22 1083.83 1050.22H1146.92C1150.23 1050.22 1152.92 1047.53 1152.92 1044.22V963.102C1152.92 959.788 1150.23 957.102 1146.92 957.102H1083.83C1080.52 957.102 1077.83 959.788 1077.83 963.102V1044.22ZM1077.83 948.743C1077.83 952.057 1080.52 954.743 1083.83 954.743H1146.92C1150.23 954.743 1152.92 952.057 1152.92 948.743V867.629C1152.92 864.315 1150.23 861.629 1146.92 861.629H1083.83C1080.52 861.629 1077.83 864.315 1077.83 867.629V948.743ZM1077.83 853.27C1077.83 856.583 1080.52 859.27 1083.83 859.27H1146.92C1150.23 859.27 1152.92 856.583 1152.92 853.27V772.153C1152.92 768.839 1150.23 766.153 1146.92 766.153H1083.83C1080.52 766.153 1077.83 768.839 1077.83 772.153V853.27ZM1077.83 757.794C1077.83 761.108 1080.52 763.794 1083.83 763.794H1146.92C1150.23 763.794 1152.92 761.108 1152.92 757.794V676.68C1152.92 673.366 1150.23 670.68 1146.92 670.68H1083.83C1080.52 670.68 1077.83 673.366 1077.83 676.68V757.794ZM1077.83 662.32C1077.83 665.634 1080.52 668.32 1083.83 668.32H1146.92C1150.23 668.32 1152.92 665.634 1152.92 662.32V581.204C1152.92 577.89 1150.23 575.204 1146.92 575.204H1083.83C1080.52 575.204 1077.83 577.89 1077.83 581.204V662.32ZM1077.83 566.845C1077.83 570.159 1080.52 572.845 1083.83 572.845H1146.92C1150.23 572.845 1152.92 570.159 1152.92 566.845V485.73C1152.92 482.417 1150.23 479.73 1146.92 479.73H1083.83C1080.52 479.73 1077.83 482.417 1077.83 485.73V566.845ZM1077.83 471.372C1077.83 474.685 1080.52 477.372 1083.83 477.372H1146.92C1150.23 477.372 1152.92 474.685 1152.92 471.372V390.255C1152.92 386.941 1150.23 384.255 1146.92 384.255H1083.83C1080.52 384.255 1077.83 386.941 1077.83 390.255V471.372ZM1077.83 375.896C1077.83 379.21 1080.52 381.896 1083.83 381.896H1146.92C1150.23 381.896 1152.92 379.21 1152.92 375.896V294.781C1152.92 291.468 1150.23 288.781 1146.92 288.781H1083.83C1080.52 288.781 1077.83 291.468 1077.83 294.781V375.896ZM1077.83 280.422C1077.83 283.736 1080.52 286.422 1083.83 286.422H1146.92C1150.23 286.422 1152.92 283.736 1152.92 280.422V199.308C1152.92 195.994 1150.23 193.308 1146.92 193.308H1083.83C1080.52 193.308 1077.83 195.994 1077.83 199.308V280.422ZM1077.83 184.949C1077.83 188.263 1080.52 190.949 1083.83 190.949H1146.92C1150.23 190.949 1152.92 188.263 1152.92 184.949V103.832C1152.92 100.519 1150.23 97.8323 1146.92 97.8323H1083.83C1080.52 97.8323 1077.83 100.519 1077.83 103.832V184.949ZM1069.93 97.8323C1073.24 97.8323 1075.93 100.519 1075.93 103.832V184.949C1075.93 188.263 1073.24 190.949 1069.93 190.949H1006.84C1003.53 190.949 1000.84 188.263 1000.84 184.949V103.832C1000.84 100.519 1003.53 97.8323 1006.84 97.8323H1069.93ZM1069.93 193.308C1073.24 193.308 1075.93 195.994 1075.93 199.308V280.422C1075.93 283.736 1073.24 286.422 1069.93 286.422H1006.84C1003.53 286.422 1000.84 283.736 1000.84 280.422V199.308C1000.84 195.994 1003.53 193.308 1006.84 193.308H1069.93ZM1069.93 288.781C1073.24 288.781 1075.93 291.468 1075.93 294.781V375.896C1075.93 379.21 1073.24 381.896 1069.93 381.896H1006.84C1003.53 381.896 1000.84 379.21 1000.84 375.896V294.781C1000.84 291.468 1003.53 288.781 1006.84 288.781H1069.93ZM1069.93 384.255C1073.24 384.255 1075.93 386.941 1075.93 390.255V471.372C1075.93 474.685 1073.24 477.372 1069.93 477.372H1006.84C1003.53 477.372 1000.84 474.685 1000.84 471.372V390.255C1000.84 386.941 1003.53 384.255 1006.84 384.255H1069.93ZM1069.93 479.73C1073.24 479.73 1075.93 482.417 1075.93 485.73V566.845C1075.93 570.159 1073.24 572.845 1069.93 572.845H1006.84C1003.53 572.845 1000.84 570.159 1000.84 566.845V485.73C1000.84 482.417 1003.53 479.73 1006.84 479.73H1069.93ZM1069.93 575.204C1073.24 575.204 1075.93 577.89 1075.93 581.204V662.32C1075.93 665.634 1073.24 668.32 1069.93 668.32H1006.84C1003.53 668.32 1000.84 665.634 1000.84 662.32V581.204C1000.84 577.89 1003.53 575.204 1006.84 575.204H1069.93ZM1069.93 670.68C1073.24 670.68 1075.93 673.366 1075.93 676.68V757.794C1075.93 761.108 1073.24 763.794 1069.93 763.794H1006.84C1003.53 763.794 1000.84 761.108 1000.84 757.794V676.68C1000.84 673.366 1003.53 670.68 1006.84 670.68H1069.93ZM1069.93 766.153C1073.24 766.153 1075.93 768.839 1075.93 772.153V853.27C1075.93 856.583 1073.24 859.27 1069.93 859.27H1006.84C1003.53 859.27 1000.84 856.583 1000.84 853.27V772.153C1000.84 768.839 1003.53 766.153 1006.84 766.153H1069.93ZM1069.93 861.629C1073.24 861.629 1075.93 864.315 1075.93 867.629V948.743C1075.93 952.057 1073.24 954.743 1069.93 954.743H1006.84C1003.53 954.743 1000.84 952.057 1000.84 948.743V867.629C1000.84 864.315 1003.53 861.629 1006.84 861.629H1069.93ZM1069.93 957.102C1073.24 957.102 1075.93 959.788 1075.93 963.102V1044.22C1075.93 1047.53 1073.24 1050.22 1069.93 1050.22H1006.84C1003.53 1050.22 1000.84 1047.53 1000.84 1044.22V963.102C1000.84 959.788 1003.53 957.102 1006.84 957.102H1069.93ZM1069.93 1052.58C1073.24 1052.58 1075.93 1055.26 1075.93 1058.58V1139.69C1075.93 1143.01 1073.24 1145.69 1069.93 1145.69H1006.84C1003.53 1145.69 1000.84 1143.01 1000.84 1139.69V1058.58C1000.84 1055.26 1003.53 1052.58 1006.84 1052.58H1069.93ZM1069.93 1148.05C1073.24 1148.05 1075.93 1150.74 1075.93 1154.05V1235.17C1075.93 1238.48 1073.24 1241.17 1069.93 1241.17H1006.84C1003.53 1241.17 1000.84 1238.48 1000.84 1235.17V1154.05C1000.84 1150.74 1003.53 1148.05 1006.84 1148.05H1069.93ZM923.856 1235.17C923.856 1238.48 926.543 1241.17 929.856 1241.17H992.941C996.255 1241.17 998.941 1238.48 998.941 1235.17V1154.05C998.941 1150.74 996.255 1148.05 992.941 1148.05H929.856C926.543 1148.05 923.856 1150.74 923.856 1154.05V1235.17ZM923.856 1139.69C923.856 1143.01 926.543 1145.69 929.856 1145.69H992.941C996.255 1145.69 998.941 1143.01 998.941 1139.69V1058.58C998.941 1055.26 996.255 1052.58 992.941 1052.58H929.856C926.543 1052.58 923.856 1055.26 923.856 1058.58V1139.69ZM923.856 1044.22C923.856 1047.53 926.543 1050.22 929.856 1050.22H992.941C996.255 1050.22 998.941 1047.53 998.941 1044.22V963.102C998.941 959.788 996.255 957.102 992.941 957.102H929.856C926.543 957.102 923.856 959.788 923.856 963.102V1044.22ZM923.856 948.743C923.856 952.057 926.543 954.743 929.856 954.743H992.941C996.255 954.743 998.941 952.057 998.941 948.743V867.629C998.941 864.315 996.255 861.629 992.941 861.629H929.856C926.543 861.629 923.856 864.315 923.856 867.629V948.743ZM923.856 853.27C923.856 856.583 926.543 859.27 929.856 859.27H992.941C996.255 859.27 998.941 856.583 998.941 853.27V772.153C998.941 768.839 996.255 766.153 992.941 766.153H929.856C926.543 766.153 923.856 768.839 923.856 772.153V853.27ZM923.856 757.794C923.856 761.108 926.543 763.794 929.856 763.794H992.941C996.255 763.794 998.941 761.108 998.941 757.794V676.68C998.941 673.366 996.255 670.68 992.941 670.68H929.856C926.543 670.68 923.856 673.366 923.856 676.68V757.794ZM923.856 662.32C923.856 665.634 926.543 668.32 929.856 668.32H992.941C996.255 668.32 998.941 665.634 998.941 662.32V581.204C998.941 577.89 996.255 575.204 992.941 575.204H929.856C926.543 575.204 923.856 577.89 923.856 581.204V662.32ZM923.856 566.845C923.856 570.159 926.543 572.845 929.856 572.845H992.941C996.255 572.845 998.941 570.159 998.941 566.845V485.73C998.941 482.417 996.255 479.73 992.941 479.73H929.856C926.543 479.73 923.856 482.417 923.856 485.73V566.845ZM923.856 471.372C923.856 474.685 926.543 477.372 929.856 477.372H992.941C996.255 477.372 998.941 474.685 998.941 471.372V390.255C998.941 386.941 996.255 384.255 992.941 384.255H929.856C926.543 384.255 923.856 386.941 923.856 390.255V471.372ZM923.856 375.896C923.856 379.21 926.543 381.896 929.856 381.896H992.941C996.255 381.896 998.941 379.21 998.941 375.896V294.781C998.941 291.468 996.255 288.781 992.941 288.781H929.856C926.543 288.781 923.856 291.468 923.856 294.781V375.896ZM923.856 280.422C923.856 283.736 926.543 286.422 929.856 286.422H992.941C996.255 286.422 998.941 283.736 998.941 280.422V199.308C998.941 195.994 996.255 193.308 992.941 193.308H929.856C926.543 193.308 923.856 195.994 923.856 199.308V280.422ZM923.856 184.949C923.856 188.263 926.543 190.949 929.856 190.949H992.941C996.255 190.949 998.941 188.263 998.941 184.949V103.832C998.941 100.519 996.255 97.8323 992.941 97.8323H929.856C926.543 97.8323 923.856 100.519 923.856 103.832V184.949ZM915.954 97.8323C919.268 97.8323 921.954 100.519 921.954 103.832V184.949C921.954 188.263 919.268 190.949 915.954 190.949H852.867C849.553 190.949 846.867 188.263 846.867 184.949V103.832C846.867 100.519 849.553 97.8323 852.867 97.8323H915.954ZM915.954 193.308C919.268 193.308 921.954 195.994 921.954 199.308V280.422C921.954 283.736 919.268 286.422 915.954 286.422H852.867C849.553 286.422 846.867 283.736 846.867 280.422V199.308C846.867 195.994 849.553 193.308 852.867 193.308H915.954ZM915.954 288.781C919.268 288.781 921.954 291.468 921.954 294.781V375.896C921.954 379.21 919.268 381.896 915.954 381.896H852.867C849.553 381.896 846.867 379.21 846.867 375.896V294.781C846.867 291.468 849.553 288.781 852.867 288.781H915.954ZM915.954 384.255C919.268 384.255 921.954 386.941 921.954 390.255V471.372C921.954 474.685 919.268 477.372 915.954 477.372H852.867C849.553 477.372 846.867 474.685 846.867 471.372V390.255C846.867 386.941 849.553 384.255 852.867 384.255H915.954ZM915.954 479.73C919.268 479.73 921.954 482.417 921.954 485.73V566.845C921.954 570.159 919.268 572.845 915.954 572.845H852.867C849.553 572.845 846.867 570.159 846.867 566.845V485.73C846.867 482.417 849.553 479.73 852.867 479.73H915.954ZM915.954 575.204C919.268 575.204 921.954 577.89 921.954 581.204V662.32C921.954 665.634 919.268 668.32 915.954 668.32H852.867C849.553 668.32 846.867 665.634 846.867 662.32V581.204C846.867 577.89 849.553 575.204 852.867 575.204H915.954ZM915.954 670.68C919.268 670.68 921.954 673.366 921.954 676.68V757.794C921.954 761.108 919.268 763.794 915.954 763.794H852.867C849.553 763.794 846.867 761.108 846.867 757.794V676.68C846.867 673.366 849.553 670.68 852.867 670.68H915.954ZM915.954 766.153C919.268 766.153 921.954 768.839 921.954 772.153V853.27C921.954 856.583 919.268 859.27 915.954 859.27H852.867C849.553 859.27 846.867 856.583 846.867 853.27V772.153C846.867 768.839 849.553 766.153 852.867 766.153H915.954ZM915.954 861.629C919.268 861.629 921.954 864.315 921.954 867.629V948.743C921.954 952.057 919.268 954.743 915.954 954.743H852.867C849.553 954.743 846.867 952.057 846.867 948.743V867.629C846.867 864.315 849.553 861.629 852.867 861.629H915.954ZM915.954 957.102C919.268 957.102 921.954 959.788 921.954 963.102V1044.22C921.954 1047.53 919.268 1050.22 915.954 1050.22H852.867C849.553 1050.22 846.867 1047.53 846.867 1044.22V963.102C846.867 959.788 849.553 957.102 852.867 957.102H915.954ZM915.954 1052.58C919.268 1052.58 921.954 1055.26 921.954 1058.58V1139.69C921.954 1143.01 919.268 1145.69 915.954 1145.69H852.867C849.553 1145.69 846.867 1143.01 846.867 1139.69V1058.58C846.867 1055.26 849.553 1052.58 852.867 1052.58H915.954ZM915.954 1148.05C919.268 1148.05 921.954 1150.74 921.954 1154.05V1235.17C921.954 1238.48 919.268 1241.17 915.954 1241.17H852.867C849.553 1241.17 846.867 1238.48 846.867 1235.17V1154.05C846.867 1150.74 849.553 1148.05 852.867 1148.05H915.954ZM769.88 1235.17C769.88 1238.48 772.566 1241.17 775.88 1241.17H838.965C842.279 1241.17 844.965 1238.48 844.965 1235.17V1154.05C844.965 1150.74 842.279 1148.05 838.965 1148.05H775.88C772.566 1148.05 769.88 1150.74 769.88 1154.05V1235.17ZM769.88 1139.69C769.88 1143.01 772.566 1145.69 775.88 1145.69H838.965C842.279 1145.69 844.965 1143.01 844.965 1139.69V1058.58C844.965 1055.26 842.279 1052.58 838.965 1052.58H775.88C772.566 1052.58 769.88 1055.26 769.88 1058.58V1139.69ZM769.88 1044.22C769.88 1047.53 772.566 1050.22 775.88 1050.22H838.965C842.279 1050.22 844.965 1047.53 844.965 1044.22V963.102C844.965 959.788 842.279 957.102 838.965 957.102H775.88C772.566 957.102 769.88 959.788 769.88 963.102V1044.22ZM769.88 948.743C769.88 952.057 772.566 954.743 775.88 954.743H838.965C842.279 954.743 844.965 952.057 844.965 948.743V867.629C844.965 864.315 842.279 861.629 838.965 861.629H775.88C772.566 861.629 769.88 864.315 769.88 867.629V948.743ZM769.88 853.27C769.88 856.583 772.566 859.27 775.88 859.27H838.965C842.279 859.27 844.965 856.583 844.965 853.27V772.153C844.965 768.839 842.279 766.153 838.965 766.153H775.88C772.566 766.153 769.88 768.839 769.88 772.153V853.27ZM769.88 757.794C769.88 761.108 772.566 763.794 775.88 763.794H838.965C842.279 763.794 844.965 761.108 844.965 757.794V676.68C844.965 673.366 842.279 670.68 838.965 670.68H775.88C772.566 670.68 769.88 673.366 769.88 676.68V757.794ZM769.88 662.32C769.88 665.634 772.566 668.32 775.88 668.32H838.965C842.279 668.32 844.965 665.634 844.965 662.32V581.204C844.965 577.89 842.279 575.204 838.965 575.204H775.88C772.566 575.204 769.88 577.89 769.88 581.204V662.32ZM769.88 566.845C769.88 570.159 772.566 572.845 775.88 572.845H838.965C842.279 572.845 844.965 570.159 844.965 566.845V485.73C844.965 482.417 842.279 479.73 838.965 479.73H775.88C772.566 479.73 769.88 482.417 769.88 485.73V566.845ZM769.88 471.372C769.88 474.685 772.566 477.372 775.88 477.372H838.965C842.279 477.372 844.965 474.685 844.965 471.372V390.255C844.965 386.941 842.279 384.255 838.965 384.255H775.88C772.566 384.255 769.88 386.941 769.88 390.255V471.372ZM769.88 375.896C769.88 379.21 772.566 381.896 775.88 381.896H838.965C842.279 381.896 844.965 379.21 844.965 375.896V294.781C844.965 291.468 842.279 288.781 838.965 288.781H775.88C772.566 288.781 769.88 291.468 769.88 294.781V375.896ZM769.88 280.422C769.88 283.736 772.566 286.422 775.88 286.422H838.965C842.279 286.422 844.965 283.736 844.965 280.422V199.308C844.965 195.994 842.279 193.308 838.965 193.308H775.88C772.566 193.308 769.88 195.994 769.88 199.308V280.422ZM769.88 184.949C769.88 188.263 772.566 190.949 775.88 190.949H838.965C842.279 190.949 844.965 188.263 844.965 184.949V103.832C844.965 100.519 842.279 97.8323 838.965 97.8323H775.88C772.566 97.8323 769.88 100.519 769.88 103.832V184.949ZM761.978 97.8323C765.292 97.8323 767.978 100.519 767.978 103.832V184.949C767.978 188.263 765.292 190.949 761.978 190.949H698.891C695.577 190.949 692.891 188.263 692.891 184.949V103.832C692.891 100.519 695.577 97.8323 698.891 97.8323H761.978ZM761.978 193.308C765.292 193.308 767.978 195.994 767.978 199.308V280.422C767.978 283.736 765.292 286.422 761.978 286.422H698.891C695.577 286.422 692.891 283.736 692.891 280.422V199.308C692.891 195.994 695.577 193.308 698.891 193.308H761.978ZM761.978 288.781C765.292 288.781 767.978 291.468 767.978 294.781V375.896C767.978 379.21 765.292 381.896 761.978 381.896H698.891C695.577 381.896 692.891 379.21 692.891 375.896V294.781C692.891 291.468 695.577 288.781 698.891 288.781H761.978ZM761.978 384.255C765.292 384.255 767.978 386.941 767.978 390.255V471.372C767.978 474.685 765.292 477.372 761.978 477.372H698.891C695.577 477.372 692.891 474.685 692.891 471.372V390.255C692.891 386.941 695.577 384.255 698.891 384.255H761.978ZM761.978 479.73C765.292 479.73 767.978 482.417 767.978 485.73V566.845C767.978 570.159 765.292 572.845 761.978 572.845H698.891C695.577 572.845 692.891 570.159 692.891 566.845V485.73C692.891 482.417 695.577 479.73 698.891 479.73H761.978ZM761.978 575.204C765.292 575.204 767.978 577.89 767.978 581.204V662.32C767.978 665.634 765.292 668.32 761.978 668.32H698.891C695.577 668.32 692.891 665.634 692.891 662.32V581.204C692.891 577.89 695.577 575.204 698.891 575.204H761.978ZM761.978 670.68C765.292 670.68 767.978 673.366 767.978 676.68V757.794C767.978 761.108 765.292 763.794 761.978 763.794H698.891C695.577 763.794 692.891 761.108 692.891 757.794V676.68C692.891 673.366 695.577 670.68 698.891 670.68H761.978ZM761.978 766.153C765.292 766.153 767.978 768.839 767.978 772.153V853.27C767.978 856.583 765.292 859.27 761.978 859.27H698.891C695.577 859.27 692.891 856.583 692.891 853.27V772.153C692.891 768.839 695.577 766.153 698.891 766.153H761.978ZM761.978 861.629C765.292 861.629 767.978 864.315 767.978 867.629V948.743C767.978 952.057 765.292 954.743 761.978 954.743H698.891C695.577 954.743 692.891 952.057 692.891 948.743V867.629C692.891 864.315 695.577 861.629 698.891 861.629H761.978ZM761.978 957.102C765.292 957.102 767.978 959.788 767.978 963.102V1044.22C767.978 1047.53 765.292 1050.22 761.978 1050.22H698.891C695.577 1050.22 692.891 1047.53 692.891 1044.22V963.102C692.891 959.788 695.577 957.102 698.891 957.102H761.978ZM761.978 1052.58C765.292 1052.58 767.978 1055.26 767.978 1058.58V1139.69C767.978 1143.01 765.292 1145.69 761.978 1145.69H698.891C695.577 1145.69 692.891 1143.01 692.891 1139.69V1058.58C692.891 1055.26 695.577 1052.58 698.891 1052.58H761.978ZM761.978 1148.05C765.292 1148.05 767.978 1150.74 767.978 1154.05V1235.17C767.978 1238.48 765.292 1241.17 761.978 1241.17H698.891C695.577 1241.17 692.891 1238.48 692.891 1235.17V1154.05C692.891 1150.74 695.577 1148.05 698.891 1148.05H761.978ZM615.906 1235.17C615.906 1238.48 618.592 1241.17 621.906 1241.17H684.989C688.302 1241.17 690.989 1238.48 690.989 1235.17V1154.05C690.989 1150.74 688.302 1148.05 684.989 1148.05H621.906C618.592 1148.05 615.906 1150.74 615.906 1154.05V1235.17ZM615.906 1139.69C615.906 1143.01 618.592 1145.69 621.906 1145.69H684.989C688.302 1145.69 690.989 1143.01 690.989 1139.69V1058.58C690.989 1055.26 688.302 1052.58 684.989 1052.58H621.906C618.592 1052.58 615.906 1055.26 615.906 1058.58V1139.69ZM615.906 1044.22C615.906 1047.53 618.592 1050.22 621.906 1050.22H684.989C688.302 1050.22 690.989 1047.53 690.989 1044.22V963.102C690.989 959.788 688.302 957.102 684.989 957.102H621.906C618.592 957.102 615.906 959.788 615.906 963.102V1044.22ZM615.906 948.743C615.906 952.057 618.592 954.743 621.906 954.743H684.989C688.302 954.743 690.989 952.057 690.989 948.743V867.629C690.989 864.315 688.302 861.629 684.989 861.629H621.906C618.592 861.629 615.906 864.315 615.906 867.629V948.743ZM615.906 853.27C615.906 856.583 618.592 859.27 621.906 859.27H684.989C688.302 859.27 690.989 856.583 690.989 853.27V772.153C690.989 768.839 688.302 766.153 684.989 766.153H621.906C618.592 766.153 615.906 768.839 615.906 772.153V853.27ZM615.906 757.794C615.906 761.108 618.592 763.794 621.906 763.794H684.989C688.302 763.794 690.989 761.108 690.989 757.794V676.68C690.989 673.366 688.302 670.68 684.989 670.68H621.906C618.592 670.68 615.906 673.366 615.906 676.68V757.794ZM615.906 662.32C615.906 665.634 618.592 668.32 621.906 668.32H684.989C688.302 668.32 690.989 665.634 690.989 662.32V581.204C690.989 577.89 688.302 575.204 684.989 575.204H621.906C618.592 575.204 615.906 577.89 615.906 581.204V662.32ZM615.906 566.845C615.906 570.159 618.592 572.845 621.906 572.845H684.989C688.302 572.845 690.989 570.159 690.989 566.845V485.73C690.989 482.417 688.302 479.73 684.989 479.73H621.906C618.592 479.73 615.906 482.417 615.906 485.73V566.845ZM615.906 471.372C615.906 474.685 618.592 477.372 621.906 477.372H684.989C688.302 477.372 690.989 474.685 690.989 471.372V390.255C690.989 386.941 688.302 384.255 684.989 384.255H621.906C618.592 384.255 615.906 386.941 615.906 390.255V471.372ZM615.906 375.896C615.906 379.21 618.592 381.896 621.906 381.896H684.989C688.302 381.896 690.989 379.21 690.989 375.896V294.781C690.989 291.468 688.302 288.781 684.989 288.781H621.906C618.592 288.781 615.906 291.468 615.906 294.781V375.896ZM615.906 280.422C615.906 283.736 618.592 286.422 621.906 286.422H684.989C688.302 286.422 690.989 283.736 690.989 280.422V199.308C690.989 195.994 688.302 193.308 684.989 193.308H621.906C618.592 193.308 615.906 195.994 615.906 199.308V280.422ZM615.906 184.949C615.906 188.263 618.592 190.949 621.906 190.949H684.989C688.302 190.949 690.989 188.263 690.989 184.949V103.832C690.989 100.519 688.302 97.8323 684.989 97.8323H621.906C618.592 97.8323 615.906 100.519 615.906 103.832V184.949ZM608.003 97.8323C611.317 97.8323 614.003 100.519 614.003 103.832V184.949C614.003 188.263 611.317 190.949 608.003 190.949H544.916C541.603 190.949 538.916 188.263 538.916 184.949V103.832C538.916 100.519 541.603 97.8323 544.916 97.8323H608.003ZM608.003 193.308C611.317 193.308 614.003 195.994 614.003 199.308V280.422C614.003 283.736 611.317 286.422 608.003 286.422H544.916C541.603 286.422 538.916 283.736 538.916 280.422V199.308C538.916 195.994 541.603 193.308 544.916 193.308H608.003ZM608.003 288.781C611.317 288.781 614.003 291.468 614.003 294.781V375.896C614.003 379.21 611.317 381.896 608.003 381.896H544.916C541.603 381.896 538.916 379.21 538.916 375.896V294.781C538.916 291.468 541.603 288.781 544.916 288.781H608.003ZM608.003 384.255C611.317 384.255 614.003 386.941 614.003 390.255V471.372C614.003 474.685 611.317 477.372 608.003 477.372H544.916C541.603 477.372 538.916 474.685 538.916 471.372V390.255C538.916 386.941 541.603 384.255 544.916 384.255H608.003ZM608.003 479.73C611.317 479.73 614.003 482.417 614.003 485.73V566.845C614.003 570.159 611.317 572.845 608.003 572.845H544.916C541.603 572.845 538.916 570.159 538.916 566.845V485.73C538.916 482.417 541.603 479.73 544.916 479.73H608.003ZM608.003 575.204C611.317 575.204 614.003 577.89 614.003 581.204V662.32C614.003 665.634 611.317 668.32 608.003 668.32H544.916C541.603 668.32 538.916 665.634 538.916 662.32V581.204C538.916 577.89 541.603 575.204 544.916 575.204H608.003ZM608.003 670.68C611.317 670.68 614.003 673.366 614.003 676.68V757.794C614.003 761.108 611.317 763.794 608.003 763.794H544.916C541.603 763.794 538.916 761.108 538.916 757.794V676.68C538.916 673.366 541.603 670.68 544.916 670.68H608.003ZM608.003 766.153C611.317 766.153 614.003 768.839 614.003 772.153V853.27C614.003 856.583 611.317 859.27 608.003 859.27H544.916C541.603 859.27 538.916 856.583 538.916 853.27V772.153C538.916 768.839 541.603 766.153 544.916 766.153H608.003ZM608.003 861.629C611.317 861.629 614.003 864.315 614.003 867.629V948.743C614.003 952.057 611.317 954.743 608.003 954.743H544.916C541.603 954.743 538.916 952.057 538.916 948.743V867.629C538.916 864.315 541.603 861.629 544.916 861.629H608.003ZM608.003 957.102C611.317 957.102 614.003 959.788 614.003 963.102V1044.22C614.003 1047.53 611.317 1050.22 608.003 1050.22H544.916C541.603 1050.22 538.916 1047.53 538.916 1044.22V963.102C538.916 959.788 541.603 957.102 544.916 957.102H608.003ZM608.003 1052.58C611.317 1052.58 614.003 1055.26 614.003 1058.58V1139.69C614.003 1143.01 611.317 1145.69 608.003 1145.69H544.916C541.603 1145.69 538.916 1143.01 538.916 1139.69V1058.58C538.916 1055.26 541.603 1052.58 544.916 1052.58H608.003ZM608.003 1148.05C611.317 1148.05 614.003 1150.74 614.003 1154.05V1235.17C614.003 1238.48 611.317 1241.17 608.003 1241.17H544.916C541.603 1241.17 538.916 1238.48 538.916 1235.17V1154.05C538.916 1150.74 541.603 1148.05 544.916 1148.05H608.003ZM461.929 1235.17C461.929 1238.48 464.615 1241.17 467.929 1241.17H531.014C534.328 1241.17 537.014 1238.48 537.014 1235.17V1154.05C537.014 1150.74 534.328 1148.05 531.014 1148.05H467.929C464.615 1148.05 461.929 1150.74 461.929 1154.05V1235.17ZM461.929 1139.69C461.929 1143.01 464.615 1145.69 467.929 1145.69H531.014C534.328 1145.69 537.014 1143.01 537.014 1139.69V1058.58C537.014 1055.26 534.328 1052.58 531.014 1052.58H467.929C464.615 1052.58 461.929 1055.26 461.929 1058.58V1139.69ZM461.929 1044.22C461.929 1047.53 464.615 1050.22 467.929 1050.22H531.014C534.328 1050.22 537.014 1047.53 537.014 1044.22V963.102C537.014 959.788 534.328 957.102 531.014 957.102H467.929C464.615 957.102 461.929 959.788 461.929 963.102V1044.22ZM461.929 948.743C461.929 952.057 464.615 954.743 467.929 954.743H531.014C534.328 954.743 537.014 952.057 537.014 948.743V867.629C537.014 864.315 534.328 861.629 531.014 861.629H467.929C464.615 861.629 461.929 864.315 461.929 867.629V948.743ZM461.929 853.27C461.929 856.583 464.615 859.27 467.929 859.27H531.014C534.328 859.27 537.014 856.583 537.014 853.27V772.153C537.014 768.839 534.328 766.153 531.014 766.153H467.929C464.615 766.153 461.929 768.839 461.929 772.153V853.27ZM461.929 757.794C461.929 761.108 464.615 763.794 467.929 763.794H531.014C534.328 763.794 537.014 761.108 537.014 757.794V676.68C537.014 673.366 534.328 670.68 531.014 670.68H467.929C464.615 670.68 461.929 673.366 461.929 676.68V757.794ZM461.929 662.32C461.929 665.634 464.615 668.32 467.929 668.32H531.014C534.328 668.32 537.014 665.634 537.014 662.32V581.204C537.014 577.89 534.328 575.204 531.014 575.204H467.929C464.615 575.204 461.929 577.89 461.929 581.204V662.32ZM461.929 566.845C461.929 570.159 464.615 572.845 467.929 572.845H531.014C534.328 572.845 537.014 570.159 537.014 566.845V485.73C537.014 482.417 534.328 479.73 531.014 479.73H467.929C464.615 479.73 461.929 482.417 461.929 485.73V566.845ZM461.929 471.372C461.929 474.685 464.615 477.372 467.929 477.372H531.014C534.328 477.372 537.014 474.685 537.014 471.372V390.255C537.014 386.941 534.328 384.255 531.014 384.255H467.929C464.615 384.255 461.929 386.941 461.929 390.255V471.372ZM461.929 375.896C461.929 379.21 464.615 381.896 467.929 381.896H531.014C534.328 381.896 537.014 379.21 537.014 375.896V294.781C537.014 291.468 534.328 288.781 531.014 288.781H467.929C464.615 288.781 461.929 291.468 461.929 294.781V375.896ZM461.929 280.422C461.929 283.736 464.615 286.422 467.929 286.422H531.014C534.328 286.422 537.014 283.736 537.014 280.422V199.308C537.014 195.994 534.328 193.308 531.014 193.308H467.929C464.615 193.308 461.929 195.994 461.929 199.308V280.422ZM461.929 184.949C461.929 188.263 464.615 190.949 467.929 190.949H531.014C534.328 190.949 537.014 188.263 537.014 184.949V103.832C537.014 100.519 534.328 97.8323 531.014 97.8323H467.929C464.615 97.8323 461.929 100.519 461.929 103.832V184.949ZM454.027 97.8323C457.341 97.8323 460.027 100.519 460.027 103.832V184.949C460.027 188.263 457.341 190.949 454.027 190.949H390.942C387.628 190.949 384.942 188.263 384.942 184.949V103.832C384.942 100.519 387.628 97.8323 390.942 97.8323H454.027ZM454.027 193.308C457.341 193.308 460.027 195.994 460.027 199.308V280.422C460.027 283.736 457.341 286.422 454.027 286.422H390.942C387.628 286.422 384.942 283.736 384.942 280.422V199.308C384.942 195.994 387.628 193.308 390.942 193.308H454.027ZM454.027 288.781C457.341 288.781 460.027 291.468 460.027 294.781V375.896C460.027 379.21 457.341 381.896 454.027 381.896H390.942C387.628 381.896 384.942 379.21 384.942 375.896V294.781C384.942 291.468 387.628 288.781 390.942 288.781H454.027ZM454.027 384.255C457.341 384.255 460.027 386.941 460.027 390.255V471.372C460.027 474.685 457.341 477.372 454.027 477.372H390.942C387.628 477.372 384.942 474.685 384.942 471.372V390.255C384.942 386.941 387.628 384.255 390.942 384.255H454.027ZM454.027 479.73C457.341 479.73 460.027 482.417 460.027 485.73V566.845C460.027 570.159 457.341 572.845 454.027 572.845H390.942C387.628 572.845 384.942 570.159 384.942 566.845V485.73C384.942 482.417 387.628 479.73 390.942 479.73H454.027ZM454.027 575.204C457.341 575.204 460.027 577.89 460.027 581.204V662.32C460.027 665.634 457.341 668.32 454.027 668.32H390.942C387.628 668.32 384.942 665.634 384.942 662.32V581.204C384.942 577.89 387.628 575.204 390.942 575.204H454.027ZM454.027 670.68C457.341 670.68 460.027 673.366 460.027 676.68V757.794C460.027 761.108 457.341 763.794 454.027 763.794H390.942C387.628 763.794 384.942 761.108 384.942 757.794V676.68C384.942 673.366 387.628 670.68 390.942 670.68H454.027ZM454.027 766.153C457.341 766.153 460.027 768.839 460.027 772.153V853.27C460.027 856.583 457.341 859.27 454.027 859.27H390.942C387.628 859.27 384.942 856.583 384.942 853.27V772.153C384.942 768.839 387.628 766.153 390.942 766.153H454.027ZM454.027 861.629C457.341 861.629 460.027 864.315 460.027 867.629V948.743C460.027 952.057 457.341 954.743 454.027 954.743H390.942C387.628 954.743 384.942 952.057 384.942 948.743V867.629C384.942 864.315 387.628 861.629 390.942 861.629H454.027ZM454.027 957.102C457.341 957.102 460.027 959.788 460.027 963.102V1044.22C460.027 1047.53 457.341 1050.22 454.027 1050.22H390.942C387.628 1050.22 384.942 1047.53 384.942 1044.22V963.102C384.942 959.788 387.628 957.102 390.942 957.102H454.027ZM454.027 1052.58C457.341 1052.58 460.027 1055.26 460.027 1058.58V1139.69C460.027 1143.01 457.341 1145.69 454.027 1145.69H390.942C387.628 1145.69 384.942 1143.01 384.942 1139.69V1058.58C384.942 1055.26 387.628 1052.58 390.942 1052.58H454.027ZM454.027 1148.05C457.341 1148.05 460.027 1150.74 460.027 1154.05V1235.17C460.027 1238.48 457.341 1241.17 454.027 1241.17H390.942C387.628 1241.17 384.942 1238.48 384.942 1235.17V1154.05C384.942 1150.74 387.628 1148.05 390.942 1148.05H454.027ZM307.953 1235.17C307.953 1238.48 310.639 1241.17 313.953 1241.17H377.04C380.353 1241.17 383.04 1238.48 383.04 1235.17V1154.05C383.04 1150.74 380.353 1148.05 377.04 1148.05H313.953C310.639 1148.05 307.953 1150.74 307.953 1154.05V1235.17ZM307.953 1139.69C307.953 1143.01 310.639 1145.69 313.953 1145.69H377.04C380.353 1145.69 383.04 1143.01 383.04 1139.69V1058.58C383.04 1055.26 380.353 1052.58 377.04 1052.58H313.953C310.639 1052.58 307.953 1055.26 307.953 1058.58V1139.69ZM307.953 1044.22C307.953 1047.53 310.639 1050.22 313.953 1050.22H377.04C380.353 1050.22 383.04 1047.53 383.04 1044.22V963.102C383.04 959.788 380.353 957.102 377.04 957.102H313.953C310.639 957.102 307.953 959.788 307.953 963.102V1044.22ZM307.953 948.743C307.953 952.057 310.639 954.743 313.953 954.743H377.04C380.353 954.743 383.04 952.057 383.04 948.743V867.629C383.04 864.315 380.353 861.629 377.04 861.629H313.953C310.639 861.629 307.953 864.315 307.953 867.629V948.743ZM307.953 853.27C307.953 856.583 310.639 859.27 313.953 859.27H377.04C380.353 859.27 383.04 856.583 383.04 853.27V772.153C383.04 768.839 380.353 766.153 377.04 766.153H313.953C310.639 766.153 307.953 768.839 307.953 772.153V853.27ZM307.953 757.794C307.953 761.108 310.639 763.794 313.953 763.794H377.04C380.353 763.794 383.04 761.108 383.04 757.794V676.68C383.04 673.366 380.353 670.68 377.04 670.68H313.953C310.639 670.68 307.953 673.366 307.953 676.68V757.794ZM307.953 662.32C307.953 665.634 310.639 668.32 313.953 668.32H377.04C380.353 668.32 383.04 665.634 383.04 662.32V581.204C383.04 577.89 380.353 575.204 377.04 575.204H313.953C310.639 575.204 307.953 577.89 307.953 581.204V662.32ZM307.953 566.845C307.953 570.159 310.639 572.845 313.953 572.845H377.04C380.353 572.845 383.04 570.159 383.04 566.845V485.73C383.04 482.417 380.353 479.73 377.04 479.73H313.953C310.639 479.73 307.953 482.417 307.953 485.73V566.845ZM307.953 471.372C307.953 474.685 310.639 477.372 313.953 477.372H377.04C380.353 477.372 383.04 474.685 383.04 471.372V390.255C383.04 386.941 380.353 384.255 377.04 384.255H313.953C310.639 384.255 307.953 386.941 307.953 390.255V471.372ZM307.953 375.896C307.953 379.21 310.639 381.896 313.953 381.896H377.04C380.353 381.896 383.04 379.21 383.04 375.896V294.781C383.04 291.468 380.353 288.781 377.04 288.781H313.953C310.639 288.781 307.953 291.468 307.953 294.781V375.896ZM307.953 280.422C307.953 283.736 310.639 286.422 313.953 286.422H377.04C380.353 286.422 383.04 283.736 383.04 280.422V199.308C383.04 195.994 380.353 193.308 377.04 193.308H313.953C310.639 193.308 307.953 195.994 307.953 199.308V280.422ZM307.953 184.949C307.953 188.263 310.639 190.949 313.953 190.949H377.04C380.353 190.949 383.04 188.263 383.04 184.949V103.832C383.04 100.519 380.353 97.8323 377.04 97.8323H313.953C310.639 97.8323 307.953 100.519 307.953 103.832V184.949ZM300.051 97.8323C303.364 97.8323 306.051 100.519 306.051 103.832V184.949C306.051 188.263 303.364 190.949 300.051 190.949H236.966C233.652 190.949 230.966 188.263 230.966 184.949V103.832C230.966 100.519 233.652 97.8323 236.966 97.8323H300.051ZM300.051 193.308C303.364 193.308 306.051 195.994 306.051 199.308V280.422C306.051 283.736 303.364 286.422 300.051 286.422H236.966C233.652 286.422 230.966 283.736 230.966 280.422V199.308C230.966 195.994 233.652 193.308 236.966 193.308H300.051ZM300.051 288.781C303.364 288.781 306.051 291.468 306.051 294.781V375.896C306.051 379.21 303.364 381.896 300.051 381.896H236.966C233.652 381.896 230.966 379.21 230.966 375.896V294.781C230.966 291.468 233.652 288.781 236.966 288.781H300.051ZM300.051 384.255C303.364 384.255 306.051 386.941 306.051 390.255V471.372C306.051 474.685 303.364 477.372 300.051 477.372H236.966C233.652 477.372 230.966 474.685 230.966 471.372V390.255C230.966 386.941 233.652 384.255 236.966 384.255H300.051ZM300.051 479.73C303.364 479.73 306.051 482.417 306.051 485.73V566.845C306.051 570.159 303.364 572.845 300.051 572.845H236.966C233.652 572.845 230.966 570.159 230.966 566.845V485.73C230.966 482.417 233.652 479.73 236.966 479.73H300.051ZM300.051 575.204C303.364 575.204 306.051 577.89 306.051 581.204V662.32C306.051 665.634 303.364 668.32 300.051 668.32H236.966C233.652 668.32 230.966 665.634 230.966 662.32V581.204C230.966 577.89 233.652 575.204 236.966 575.204H300.051ZM300.051 670.68C303.364 670.68 306.051 673.366 306.051 676.68V757.794C306.051 761.108 303.364 763.794 300.051 763.794H236.966C233.652 763.794 230.966 761.108 230.966 757.794V676.68C230.966 673.366 233.652 670.68 236.966 670.68H300.051ZM300.051 766.153C303.364 766.153 306.051 768.839 306.051 772.153V853.27C306.051 856.583 303.364 859.27 300.051 859.27H236.966C233.652 859.27 230.966 856.583 230.966 853.27V772.153C230.966 768.839 233.652 766.153 236.966 766.153H300.051ZM300.051 861.629C303.364 861.629 306.051 864.315 306.051 867.629V948.743C306.051 952.057 303.364 954.743 300.051 954.743H236.966C233.652 954.743 230.966 952.057 230.966 948.743V867.629C230.966 864.315 233.652 861.629 236.966 861.629H300.051ZM300.051 957.102C303.364 957.102 306.051 959.788 306.051 963.102V1044.22C306.051 1047.53 303.364 1050.22 300.051 1050.22H236.966C233.652 1050.22 230.966 1047.53 230.966 1044.22V963.102C230.966 959.788 233.652 957.102 236.966 957.102H300.051ZM300.051 1052.58C303.364 1052.58 306.051 1055.26 306.051 1058.58V1139.69C306.051 1143.01 303.364 1145.69 300.051 1145.69H236.966C233.652 1145.69 230.966 1143.01 230.966 1139.69V1058.58C230.966 1055.26 233.652 1052.58 236.966 1052.58H300.051ZM300.051 1148.05C303.364 1148.05 306.051 1150.74 306.051 1154.05V1235.17C306.051 1238.48 303.364 1241.17 300.051 1241.17H236.966C233.652 1241.17 230.966 1238.48 230.966 1235.17V1154.05C230.966 1150.74 233.652 1148.05 236.966 1148.05H300.051ZM153.976 1235.17C153.976 1238.48 156.663 1241.17 159.976 1241.17H223.063C226.377 1241.17 229.063 1238.48 229.063 1235.17V1154.05C229.063 1150.74 226.377 1148.05 223.063 1148.05H159.976C156.663 1148.05 153.976 1150.74 153.976 1154.05V1235.17ZM153.976 1139.69C153.976 1143.01 156.663 1145.69 159.976 1145.69H223.063C226.377 1145.69 229.063 1143.01 229.063 1139.69V1058.58C229.063 1055.26 226.377 1052.58 223.063 1052.58H159.976C156.663 1052.58 153.976 1055.26 153.976 1058.58V1139.69ZM153.976 1044.22C153.976 1047.53 156.663 1050.22 159.976 1050.22H223.063C226.377 1050.22 229.063 1047.53 229.063 1044.22V963.102C229.063 959.788 226.377 957.102 223.063 957.102H159.976C156.663 957.102 153.976 959.788 153.976 963.102V1044.22ZM153.976 948.743C153.976 952.057 156.663 954.743 159.976 954.743H223.063C226.377 954.743 229.063 952.057 229.063 948.743V867.629C229.063 864.315 226.377 861.629 223.063 861.629H159.976C156.663 861.629 153.976 864.315 153.976 867.629V948.743ZM153.976 853.27C153.976 856.583 156.663 859.27 159.976 859.27H223.063C226.377 859.27 229.063 856.583 229.063 853.27V772.153C229.063 768.839 226.377 766.153 223.063 766.153H159.976C156.663 766.153 153.976 768.839 153.976 772.153V853.27ZM153.976 757.794C153.976 761.108 156.663 763.794 159.976 763.794H223.063C226.377 763.794 229.063 761.108 229.063 757.794V676.68C229.063 673.366 226.377 670.68 223.063 670.68H159.976C156.663 670.68 153.976 673.366 153.976 676.68V757.794ZM153.976 662.32C153.976 665.634 156.663 668.32 159.976 668.32H223.063C226.377 668.32 229.063 665.634 229.063 662.32V581.204C229.063 577.89 226.377 575.204 223.063 575.204H159.976C156.663 575.204 153.976 577.89 153.976 581.204V662.32ZM153.976 566.845C153.976 570.159 156.663 572.845 159.976 572.845H223.063C226.377 572.845 229.063 570.159 229.063 566.845V485.73C229.063 482.417 226.377 479.73 223.063 479.73H159.976C156.663 479.73 153.976 482.417 153.976 485.73V566.845ZM153.976 471.372C153.976 474.685 156.663 477.372 159.976 477.372H223.063C226.377 477.372 229.063 474.685 229.063 471.372V390.255C229.063 386.941 226.377 384.255 223.063 384.255H159.976C156.663 384.255 153.976 386.941 153.976 390.255V471.372ZM153.976 375.896C153.976 379.21 156.663 381.896 159.976 381.896H223.063C226.377 381.896 229.063 379.21 229.063 375.896V294.781C229.063 291.468 226.377 288.781 223.063 288.781H159.976C156.663 288.781 153.976 291.468 153.976 294.781V375.896ZM153.976 280.422C153.976 283.736 156.663 286.422 159.976 286.422H223.063C226.377 286.422 229.063 283.736 229.063 280.422V199.308C229.063 195.994 226.377 193.308 223.063 193.308H159.976C156.663 193.308 153.976 195.994 153.976 199.308V280.422ZM153.976 184.949C153.976 188.263 156.663 190.949 159.976 190.949H223.063C226.377 190.949 229.063 188.263 229.063 184.949V103.832C229.063 100.519 226.377 97.8323 223.063 97.8323H159.976C156.663 97.8323 153.976 100.519 153.976 103.832V184.949ZM146.074 97.8323C149.388 97.8323 152.074 100.519 152.074 103.832V184.949C152.074 188.263 149.388 190.949 146.074 190.949H82.9834C79.6697 190.949 76.9834 188.263 76.9834 184.949V103.832C76.9834 100.519 79.6697 97.8323 82.9834 97.8323H146.074ZM146.074 193.308C149.388 193.308 152.074 195.994 152.074 199.308V280.422C152.074 283.736 149.388 286.422 146.074 286.422H82.9834C79.6697 286.422 76.9834 283.736 76.9834 280.422V199.308C76.9834 195.994 79.6697 193.308 82.9834 193.308H146.074ZM146.074 288.781C149.388 288.781 152.074 291.468 152.074 294.781V375.896C152.074 379.21 149.388 381.896 146.074 381.896H82.9834C79.6697 381.896 76.9834 379.21 76.9834 375.896V294.781C76.9834 291.468 79.6697 288.781 82.9834 288.781H146.074ZM146.074 384.255C149.388 384.255 152.074 386.941 152.074 390.255V471.372C152.074 474.685 149.388 477.372 146.074 477.372H82.9834C79.6697 477.372 76.9834 474.685 76.9834 471.372V390.255C76.9834 386.941 79.6697 384.255 82.9834 384.255H146.074ZM146.074 479.73C149.388 479.73 152.074 482.417 152.074 485.73V566.845C152.074 570.159 149.388 572.845 146.074 572.845H82.9834C79.6697 572.845 76.9834 570.159 76.9834 566.845V485.73C76.9834 482.417 79.6697 479.73 82.9834 479.73H146.074ZM146.074 575.204C149.388 575.204 152.074 577.89 152.074 581.204V662.32C152.074 665.634 149.388 668.32 146.074 668.32H82.9834C79.6697 668.32 76.9834 665.634 76.9834 662.32V581.204C76.9834 577.89 79.6697 575.204 82.9834 575.204H146.074ZM146.074 670.68C149.388 670.68 152.074 673.366 152.074 676.68V757.794C152.074 761.108 149.388 763.794 146.074 763.794H82.9834C79.6697 763.794 76.9834 761.108 76.9834 757.794V676.68C76.9834 673.366 79.6697 670.68 82.9834 670.68H146.074ZM146.074 766.153C149.388 766.153 152.074 768.839 152.074 772.153V853.27C152.074 856.583 149.388 859.27 146.074 859.27H82.9834C79.6697 859.27 76.9834 856.583 76.9834 853.27V772.153C76.9834 768.839 79.6697 766.153 82.9834 766.153H146.074ZM146.074 861.629C149.388 861.629 152.074 864.315 152.074 867.629V948.743C152.074 952.057 149.388 954.743 146.074 954.743H82.9834C79.6697 954.743 76.9834 952.057 76.9834 948.743V867.629C76.9834 864.315 79.6697 861.629 82.9834 861.629H146.074ZM146.074 957.102C149.388 957.102 152.074 959.788 152.074 963.102V1044.22C152.074 1047.53 149.388 1050.22 146.074 1050.22H82.9834C79.6697 1050.22 76.9834 1047.53 76.9834 1044.22V963.102C76.9834 959.788 79.6697 957.102 82.9834 957.102H146.074ZM146.074 1052.58C149.388 1052.58 152.074 1055.26 152.074 1058.58V1139.69C152.074 1143.01 149.388 1145.69 146.074 1145.69H82.9834C79.6697 1145.69 76.9834 1143.01 76.9834 1139.69V1058.58C76.9834 1055.26 79.6697 1052.58 82.9834 1052.58H146.074ZM146.074 1148.05C149.388 1148.05 152.074 1150.74 152.074 1154.05V1235.17C152.074 1238.48 149.388 1241.17 146.074 1241.17H82.9834C79.6697 1241.17 76.9834 1238.48 76.9834 1235.17V1154.05C76.9834 1150.74 79.6697 1148.05 82.9834 1148.05H146.074Z" fill="url(#paint0_radial_6149_290)" fill-opacity="0.23"/>
<g filter="url(#filter2_f_6149_290)">
<ellipse cx="971.29" cy="218.854" rx="971.29" ry="218.854" transform="matrix(-0.948657 -0.316305 -0.251137 0.967952 2864.15 599.512)" fill="#818CF8"/>
</g>
<defs>
<filter id="filter0_f_6149_290" x="-609.968" y="-530.157" width="1330.46" height="1044.27" filterUnits="userSpaceOnUse" color-interpolation-filters="sRGB">
<feFlood flood-opacity="0" result="BackgroundImageFix"/>
<feBlend mode="normal" in="SourceGraphic" in2="BackgroundImageFix" result="shape"/>
<feGaussianBlur stdDeviation="137" result="effect1_foregroundBlur_6149_290"/>
</filter>
<filter id="filter1_f_6149_290" x="-544.324" y="111.557" width="1416.63" height="1118.43" filterUnits="userSpaceOnUse" color-interpolation-filters="sRGB">
<feFlood flood-opacity="0" result="BackgroundImageFix"/>
<feBlend mode="normal" in="SourceGraphic" in2="BackgroundImageFix" result="shape"/>
<feGaussianBlur stdDeviation="137" result="effect1_foregroundBlur_6149_290"/>
</filter>
<filter id="filter2_f_6149_290" x="690.679" y="-143.086" width="2394.18" height="1294.43" filterUnits="userSpaceOnUse" color-interpolation-filters="sRGB">
<feFlood flood-opacity="0" result="BackgroundImageFix"/>
<feBlend mode="normal" in="SourceGraphic" in2="BackgroundImageFix" result="shape"/>
<feGaussianBlur stdDeviation="137" result="effect1_foregroundBlur_6149_290"/>
</filter>
<radialGradient id="paint0_radial_6149_290" cx="0" cy="0" r="1" gradientUnits="userSpaceOnUse" gradientTransform="translate(457.5 47.0006) rotate(38.7112) scale(1826.84 6722.81)">
<stop stop-color="white"/>
<stop offset="1" stop-color="white" stop-opacity="0.1"/>
</radialGradient>
</defs>
</svg>
