<svg width="139" height="37" viewBox="0 0 139 37" fill="none" xmlns="http://www.w3.org/2000/svg">
<g id="logo group">
<g id="Group">
<path id="Vector" d="M32.3082 0.0415039H5.29792C2.6481 0.0415039 0.5 2.20785 0.5 4.88017V32.1198C0.5 34.7922 2.6481 36.9585 5.29792 36.9585H32.3082C34.958 36.9585 37.1061 34.7922 37.1061 32.1198V4.88017C37.1061 2.20785 34.958 0.0415039 32.3082 0.0415039Z" fill="url(#paint0_linear_5820_484)"/>
<g id="Group_2">
<g id="Group_3">
<path id="Vector_2" d="M11.9485 13.1261V29.4914L9.68141 30.8087V14.4434L11.9485 13.1261ZM12.2876 12.5244L9.34229 14.2407V31.4041L12.2876 29.6878V12.5307V12.5244Z" fill="white"/>
<path id="Vector_3" d="M15.2392 14.2407V27.9714L12.2876 29.6878V12.5244L15.2392 14.2407Z" fill="white"/>
</g>
<g id="Group_4">
<path id="Vector_4" d="M25.6516 13.1261L27.9187 14.4434V30.8087L25.6516 29.4914V13.1261ZM25.3125 12.5244V29.6814L28.2578 31.3977V14.2344L25.3125 12.5181V12.5244Z" fill="white"/>
<path id="Vector_5" d="M22.3672 14.2407V27.9714L25.3125 29.6878V12.5244L22.3672 14.2407Z" fill="white"/>
</g>
<g id="Group_5">
<path id="Vector_6" d="M19.1452 18.6234L21.4123 19.9407V30.8024L19.1452 29.4851V18.6234ZM18.7998 18.0281V29.6814L21.7451 31.3977V19.7381L18.7998 18.0217V18.0281Z" fill="white"/>
<path id="Vector_7" d="M15.8545 19.7444V27.9714L18.7998 29.6877V18.0281L15.8545 19.7444Z" fill="white"/>
</g>
<g id="Group_6">
<path id="Vector_8" d="M18.4607 6.19738V17.0591L16.1936 18.3764V7.51472L18.4607 6.19738ZM18.7998 5.60205L15.8545 7.31838V18.9781L18.7998 17.2617V5.60838V5.60205Z" fill="white"/>
<path id="Vector_9" d="M21.7451 7.31838V15.5454L18.7998 17.2617V5.60205L21.7451 7.31838Z" fill="white"/>
</g>
</g>
</g>
<g id="Group_7">
<path id="Vector_10" d="M49.14 14.6652C49.14 13.4429 50.4714 12.7525 52.2486 12.7525C54.0258 12.7525 55.4702 13.4365 55.6272 14.8995C55.6461 15.0515 55.7654 15.1719 55.9224 15.1719H58.3088C58.4784 15.1719 58.6102 15.0262 58.604 14.8615C58.4658 11.4985 56.048 9.76953 52.2298 9.76953C48.8825 9.76953 46.201 11.4669 46.201 15.0579C46.201 21.3785 55.9538 19.0542 55.9538 22.5755C55.9538 23.7472 54.4592 24.2539 52.7008 24.2539C51.0428 24.2539 49.297 23.6142 49.1086 22.2145C49.0898 22.0689 48.9579 21.9612 48.8072 21.9612H46.4019C46.2324 21.9612 46.0942 22.1069 46.1068 22.2779C46.2952 25.7169 49.5859 27.2495 52.6945 27.2495C56.205 27.2495 58.8614 25.9829 58.8614 22.5819C58.8614 15.9065 49.1337 18.6109 49.1337 14.6842L49.14 14.6652Z" fill="url(#paint1_linear_5820_484)"/>
<path id="Vector_11" d="M69.5437 21.1188L68.5703 19.7065L67.0757 17.5405C66.9564 17.3695 66.7115 17.3695 66.5921 17.5405L64.2623 20.9162C64.1806 21.0365 63.9922 20.9795 63.9922 20.8338V10.0482C63.9922 9.88349 63.8603 9.75049 63.6971 9.75049H61.2981C61.1348 9.75049 61.0029 9.88349 61.0029 10.0482V26.5655C61.0029 26.7302 61.1348 26.8632 61.2981 26.8632H63.4584C63.5526 26.8632 63.6468 26.8188 63.6971 26.7365L66.5482 22.6388C66.6675 22.4678 66.9124 22.4678 67.0317 22.6388L69.8577 26.7302C69.9142 26.8125 70.0022 26.8568 70.1027 26.8568H72.9412C73.1798 26.8568 73.318 26.5845 73.1861 26.3882L69.5437 21.1062V21.1188Z" fill="url(#paint2_linear_5820_484)"/>
<g id="Group_8">
<path id="Vector_12" d="M128.557 14.8362C127.206 13.6519 125.611 13.6962 125.115 13.7089C124.569 13.7279 122.848 13.7785 121.743 15.1085C121.328 15.6089 121.127 16.1282 121.027 16.4892C121.008 16.5525 120.952 16.5969 120.889 16.5969H120.857C120.776 16.5969 120.713 16.5335 120.713 16.4449V14.2092C120.713 14.0445 120.581 13.9115 120.418 13.9115H118.019C117.856 13.9115 117.724 14.0445 117.724 14.2092V26.5592C117.724 26.7239 117.856 26.8569 118.019 26.8569H120.418C120.581 26.8569 120.713 26.7239 120.713 26.5592V20.2259C120.713 19.3265 120.926 18.5602 121.284 17.9459C121.925 16.8312 123.037 16.2295 124.154 16.2295C124.217 16.2295 124.274 16.2295 124.33 16.2295C125.825 16.3119 127.169 17.4265 127.169 19.4279V26.5529C127.169 26.7175 127.301 26.8505 127.464 26.8505H129.838C130.001 26.8505 130.133 26.7175 130.133 26.5529V18.9022C130.152 18.6299 130.296 16.3435 128.563 14.8172L128.557 14.8362Z" fill="url(#paint3_linear_5820_484)"/>
<path id="Vector_13" d="M99.4678 14.8362C98.1176 13.6518 96.5224 13.6962 96.0263 13.7088C95.48 13.7278 93.7593 13.7785 92.654 15.1085C92.2395 15.6088 92.0385 16.1282 91.938 16.4892C91.9192 16.5525 91.8627 16.5968 91.7999 16.5968H91.7685C91.6868 16.5968 91.624 16.5335 91.624 16.4448V10.0482C91.624 9.88349 91.4922 9.75049 91.3289 9.75049H88.9299C88.7666 9.75049 88.6348 9.88349 88.6348 10.0482V26.5655C88.6348 26.7302 88.7666 26.8632 88.9299 26.8632H91.3289C91.4922 26.8632 91.624 26.7302 91.624 26.5655V20.2322C91.624 19.3328 91.8376 18.5665 92.1955 17.9522C92.8424 16.8375 93.9476 16.2358 95.0655 16.2358C95.1283 16.2358 95.1848 16.2358 95.2413 16.2358C96.736 16.3182 98.0799 17.4328 98.0799 19.4342V26.5592C98.0799 26.7238 98.2118 26.8568 98.375 26.8568H100.749C100.912 26.8568 101.044 26.7238 101.044 26.5592V18.9085C101.063 18.6362 101.214 16.3498 99.474 14.8235L99.4678 14.8362Z" fill="url(#paint4_linear_5820_484)"/>
<path id="Vector_14" d="M115.293 13.9177H112.894C112.731 13.9177 112.599 14.0507 112.599 14.2154V20.5487C112.599 21.4481 112.386 22.2144 112.028 22.8287C111.387 23.9434 110.276 24.5451 109.158 24.5451C109.095 24.5451 109.038 24.5451 108.982 24.5451C107.487 24.4627 106.15 23.3481 106.15 21.3467V14.2217C106.15 14.0571 106.018 13.9241 105.854 13.9241H103.481C103.317 13.9241 103.185 14.0571 103.185 14.2217V21.8724C103.16 22.1447 103.016 24.4311 104.755 25.9574C106.106 27.1417 107.701 27.0974 108.197 27.0847C108.743 27.0657 110.464 27.0151 111.569 25.6851C111.984 25.1847 112.185 24.6654 112.285 24.3044C112.304 24.2411 112.36 24.1967 112.423 24.1967H112.455C112.536 24.1967 112.599 24.2601 112.599 24.3487V26.5844C112.599 26.7491 112.731 26.8821 112.894 26.8821H115.293C115.457 26.8821 115.588 26.7491 115.588 26.5844V14.2344C115.588 14.0697 115.457 13.9367 115.293 13.9367V13.9177Z" fill="url(#paint5_linear_5820_484)"/>
<path id="Vector_15" d="M86.2108 13.9177H83.8118C83.6485 13.9177 83.5166 14.0507 83.5166 14.2154V20.5487C83.5166 21.4481 83.3031 22.2144 82.9452 22.8287C82.3046 23.9434 81.193 24.5451 80.0752 24.5451C80.0124 24.5451 79.9559 24.5451 79.8994 24.5451C78.4047 24.4627 77.0608 23.3481 77.0608 21.3467V14.2217C77.0608 14.0571 76.9289 13.9241 76.7656 13.9241H74.3918C74.2285 13.9241 74.0966 14.0571 74.0966 14.2217V21.8724C74.0778 22.1447 73.9334 24.4311 75.6666 25.9574C77.0168 27.1417 78.612 27.0974 79.1081 27.0847C79.6544 27.0657 81.3752 27.0151 82.4804 25.6851C82.8949 25.1847 83.0959 24.6654 83.1964 24.3044C83.2152 24.2411 83.2717 24.1967 83.3345 24.1967H83.3659C83.4476 24.1967 83.5104 24.2601 83.5104 24.3487V26.5844C83.5104 26.7491 83.6422 26.8821 83.8055 26.8821H86.2045C86.3678 26.8821 86.4996 26.7491 86.4996 26.5844V14.2344C86.4996 14.0697 86.3678 13.9367 86.2045 13.9367L86.2108 13.9177Z" fill="url(#paint6_linear_5820_484)"/>
<path id="Vector_16" d="M136.645 24.1398C135.835 24.1398 135.27 23.6585 135.27 22.7528V17.8508V17.1542C135.27 16.6538 135.05 16.1725 134.655 15.8748C134.655 15.8748 134.648 15.8685 134.642 15.8622C134.29 15.6025 133.945 15.5265 133.738 15.5138C133.662 15.5075 133.606 15.4442 133.606 15.3682C133.606 15.2858 133.675 15.2162 133.75 15.2162H136.865C137.028 15.2162 137.16 15.0832 137.16 14.9185V12.9045C137.16 12.7398 137.028 12.6068 136.865 12.6068H135.559C135.396 12.6068 135.264 12.4738 135.264 12.3092V10.0545C135.264 9.88984 135.132 9.75684 134.969 9.75684H132.57C132.406 9.75684 132.275 9.88984 132.275 10.0545V12.3092C132.275 12.4738 132.143 12.6068 131.979 12.6068H130.993C130.83 12.6068 130.698 12.7398 130.698 12.9045V14.9185C130.698 15.0832 130.83 15.2162 130.993 15.2162H131.483C131.716 15.2162 131.904 15.2922 132.048 15.4378C132.193 15.5835 132.268 15.7735 132.268 16.0142V17.8508V23.7345C132.268 26.1032 134.027 26.8695 135.641 26.8695H137.958C138.121 26.8695 138.253 26.7365 138.253 26.5718V24.4375C138.253 24.2728 138.121 24.1398 137.958 24.1398H136.639H136.645Z" fill="url(#paint7_linear_5820_484)"/>
</g>
<path id="Vector_17" d="M70.3414 12.0496L68.627 14.5892L70.3414 17.1289L72.0558 14.5892L70.3414 12.0496Z" fill="url(#paint8_linear_5820_484)"/>
</g>
</g>
<defs>
<linearGradient id="paint0_linear_5820_484" x1="1.285" y1="38.1365" x2="40.693" y2="-5.28908" gradientUnits="userSpaceOnUse">
<stop offset="0.07" stop-color="#4F46E5"/>
<stop offset="0.91" stop-color="#6C9CFF"/>
</linearGradient>
<linearGradient id="paint1_linear_5820_484" x1="52.4872" y1="26.7809" x2="52.4872" y2="1.40953" gradientUnits="userSpaceOnUse">
<stop offset="0.07" stop-color="#4F46E5"/>
<stop offset="0.91" stop-color="#6C9CFF"/>
</linearGradient>
<linearGradient id="paint2_linear_5820_484" x1="67.1197" y1="26.7808" x2="67.1197" y2="1.40949" gradientUnits="userSpaceOnUse">
<stop offset="0.07" stop-color="#4F46E5"/>
<stop offset="0.91" stop-color="#6C9CFF"/>
</linearGradient>
<linearGradient id="paint3_linear_5820_484" x1="123.928" y1="26.7809" x2="123.928" y2="1.40952" gradientUnits="userSpaceOnUse">
<stop offset="0.07" stop-color="#4F46E5"/>
<stop offset="0.91" stop-color="#6C9CFF"/>
</linearGradient>
<linearGradient id="paint4_linear_5820_484" x1="94.8394" y1="26.7808" x2="94.8394" y2="1.40949" gradientUnits="userSpaceOnUse">
<stop offset="0.07" stop-color="#4F46E5"/>
<stop offset="0.91" stop-color="#6C9CFF"/>
</linearGradient>
<linearGradient id="paint5_linear_5820_484" x1="109.377" y1="26.7807" x2="109.377" y2="1.40939" gradientUnits="userSpaceOnUse">
<stop offset="0.07" stop-color="#4F46E5"/>
<stop offset="0.91" stop-color="#6C9CFF"/>
</linearGradient>
<linearGradient id="paint6_linear_5820_484" x1="80.295" y1="26.7807" x2="80.295" y2="1.40939" gradientUnits="userSpaceOnUse">
<stop offset="0.07" stop-color="#4F46E5"/>
<stop offset="0.91" stop-color="#6C9CFF"/>
</linearGradient>
<linearGradient id="paint7_linear_5820_484" x1="134.485" y1="26.7808" x2="134.485" y2="1.4095" gradientUnits="userSpaceOnUse">
<stop offset="0.07" stop-color="#4F46E5"/>
<stop offset="0.91" stop-color="#6C9CFF"/>
</linearGradient>
<linearGradient id="paint8_linear_5820_484" x1="70.3414" y1="26.7809" x2="70.3414" y2="1.40957" gradientUnits="userSpaceOnUse">
<stop offset="0.07" stop-color="#4F46E5"/>
<stop offset="0.91" stop-color="#6C9CFF"/>
</linearGradient>
</defs>
</svg>
