<svg width="201" height="45" viewBox="0 0 201 45" fill="none" xmlns="http://www.w3.org/2000/svg">
<g id="plexo logo 1" clip-path="url(#clip0_5820_413)">
<g id="Layer 1">
<g id="Group">
<path id="Vector" d="M167.315 29.5781C163.789 29.5781 160.919 26.7083 160.919 23.182C160.919 19.6557 163.789 16.7859 167.315 16.7859C170.841 16.7859 173.711 19.6557 173.711 23.182C173.711 26.7083 170.841 29.5781 167.315 29.5781ZM167.315 17.7359C164.311 17.7359 161.874 20.1779 161.874 23.177C161.874 26.1761 164.316 28.6182 167.315 28.6182C170.314 28.6182 172.756 26.1761 172.756 23.177C172.756 20.1779 170.314 17.7359 167.315 17.7359Z" fill="black"/>
<path id="Vector_2" d="M200.589 1.98439C199.52 1.2085 198.256 0.800659 196.928 0.800659C196.53 0.800659 196.137 0.835475 195.754 0.910079C194.566 1.13389 193.462 1.70089 192.571 2.5663H192.566C192.566 2.5663 192.522 2.60609 192.497 2.63593C192.492 2.63593 192.487 2.64091 192.487 2.64588L192.417 2.71054L192.377 2.75033C192.348 2.78017 192.318 2.81498 192.303 2.85477H192.298C192.273 2.88461 192.258 2.91446 192.238 2.93435C192.173 2.99403 192.134 3.04377 192.119 3.06864C192.059 3.1333 192.009 3.19795 191.95 3.26261C188.956 6.80384 187.23 11.2453 187.041 15.8758C183.962 8.14673 176.397 2.67075 167.589 2.67075C166.43 2.67075 165.291 2.76525 164.182 2.95425L163.396 4.04845C164.749 3.755 166.151 3.60579 167.589 3.60579C178.61 3.60579 187.583 12.5782 187.583 23.6048C187.583 34.6314 178.61 43.6038 167.589 43.6038C166.256 43.6038 164.948 43.4695 163.684 43.2208L164.45 44.2951C165.475 44.4493 166.519 44.5339 167.589 44.5339C178.824 44.5339 188.03 35.6311 188.498 24.5001C188.513 24.2066 188.523 23.9032 188.523 23.6048C188.523 22.4857 188.438 21.3816 188.264 20.3073C188.06 19.1584 187.951 17.9796 187.951 16.771C187.951 12.0809 189.597 7.53994 192.621 3.93405C192.696 3.83955 192.775 3.75003 192.85 3.6605C192.875 3.62569 192.885 3.61574 192.895 3.60082L192.974 3.51627C192.999 3.47648 193.034 3.44166 193.059 3.40685C193.069 3.3969 193.074 3.39193 193.084 3.377C193.113 3.34716 193.143 3.31235 193.168 3.28251C193.183 3.26758 193.208 3.24272 193.233 3.22282C194.238 2.25794 195.551 1.72576 196.928 1.72576C198.062 1.72576 199.137 2.07888 200.042 2.73541C200.251 2.88461 200.544 2.83985 200.693 2.63096C200.843 2.42207 200.798 2.12862 200.589 1.97941V1.98439Z" fill="black"/>
<path id="Vector_3" d="M183.972 26.2458C183.947 26.2458 183.922 26.2458 183.897 26.2409C183.639 26.2011 183.46 25.9524 183.504 25.6938C183.634 24.893 183.698 24.0475 183.698 23.1821C183.698 14.1549 176.352 6.80885 167.325 6.80885C164.873 6.80885 162.516 7.33606 160.327 8.37555C160.088 8.48994 159.805 8.3855 159.696 8.15173C159.581 7.913 159.686 7.6295 159.919 7.52008C162.237 6.41593 164.729 5.85889 167.325 5.85889C176.879 5.85889 184.653 13.6327 184.653 23.187C184.653 24.1022 184.584 25.0024 184.444 25.8479C184.405 26.0817 184.206 26.2508 183.977 26.2508L183.972 26.2458Z" fill="black"/>
<path id="Vector_4" d="M182.241 24.6791C182.241 24.6791 182.216 24.6791 182.206 24.6791C181.942 24.6592 181.749 24.4304 181.763 24.1718C181.788 23.8485 181.798 23.5152 181.798 23.187C181.798 15.1993 175.303 8.70375 167.315 8.70375C165.097 8.70375 162.963 9.19117 160.979 10.161C160.74 10.2754 160.456 10.1759 160.342 9.94219C160.228 9.70345 160.327 9.41995 160.561 9.30556C162.675 8.27602 164.948 7.75378 167.31 7.75378C175.82 7.75378 182.743 14.6771 182.743 23.187C182.743 23.5401 182.733 23.8932 182.708 24.2414C182.689 24.4901 182.48 24.6841 182.236 24.6841L182.241 24.6791Z" fill="black"/>
<path id="Vector_5" d="M180.585 23.1721C180.331 23.1721 180.117 22.9682 180.112 22.7145C179.864 15.7962 174.248 10.3799 167.32 10.3799C165.296 10.3799 163.366 10.8375 161.581 11.7377C161.342 11.8571 161.058 11.7626 160.939 11.5288C160.82 11.295 160.914 11.0066 161.148 10.8872C163.068 9.91735 165.142 9.42993 167.315 9.42993C174.756 9.42993 180.794 15.2541 181.057 22.6847C181.067 22.9483 180.863 23.1671 180.6 23.1771C180.595 23.1771 180.59 23.1771 180.585 23.1771V23.1721Z" fill="black"/>
<path id="Vector_6" d="M37.3689 10.1959C35.8271 7.84339 33.6436 6.03299 30.8136 4.76968C27.9836 3.50638 24.6364 2.86975 20.7619 2.86975H0.777832V44.3847H14.7786V34.1838H20.7669C24.6414 34.1838 27.9886 33.5422 30.8186 32.254C33.6486 30.9658 35.8271 29.1654 37.3739 26.8327C38.9107 24.5001 39.6866 21.7298 39.6866 18.5268C39.6866 15.3237 38.9157 12.5485 37.3739 10.1959H37.3689ZM24.1738 22.0829C23.2487 22.9483 21.8114 23.386 19.8766 23.386H14.7786V13.6625H19.8766C21.8114 13.6625 23.2487 14.1002 24.1738 14.9706C25.1039 15.836 25.5714 17.0198 25.5714 18.5268C25.5714 20.0338 25.1039 21.2125 24.1738 22.0879V22.0829Z" fill="#231F20"/>
<path id="Vector_7" d="M58.2434 2.86975H44.2476V44.3798H76.9791V33.5273H58.2434V2.86975Z" fill="#231F20"/>
<path id="Vector_8" d="M94.5906 28.3696H112.148V18.288H94.5906V13.4238H114.575V2.86975H80.8335V44.3798H115.351V33.8257H94.5906V28.3696Z" fill="#231F20"/>
<path id="Vector_9" d="M162.73 44.3847H146.72L139.538 33.2836L132.545 44.3847H116.594L131.595 23.4208L117.131 2.86975H132.843L139.906 13.3044L146.779 2.86975H161.839L161.243 3.70035L147.416 22.9334L161.571 42.7633L162.431 43.9719L162.73 44.3847Z" fill="#231F20"/>
</g>
</g>
</g>
<defs>
<clipPath id="clip0_5820_413">
<rect width="200" height="43.7332" fill="white" transform="translate(0.777832 0.800659)"/>
</clipPath>
</defs>
</svg>
